<svg width="60" height="60" viewBox="0 0 60 60" fill="none" xmlns="http://www.w3.org/2000/svg">
<path fill-rule="evenodd" clip-rule="evenodd" d="M32.8767 6.11383C31.9112 5.39194 30.7229 5 29.4997 5C28.2765 5 27.0883 5.39194 26.1228 6.11383L3.06726 23.3478C0.999306 24.8994 2.13778 28.0845 4.75848 28.0845H7.76142L10.0164 49.7564C10.1521 51.0609 10.7872 52.2703 11.7984 53.15C12.8097 54.0297 14.1249 54.5168 15.4888 54.5169H43.5107C44.8746 54.5168 46.1898 54.0297 47.201 53.15C48.2123 52.2703 48.8474 51.0609 48.9831 49.7564L51.238 28.0845H54.241C56.8589 28.0845 58.0029 24.8994 55.9322 23.3504L32.8767 6.11383ZM12.9891 25.2033C12.9537 24.8519 12.8454 24.5109 12.6707 24.2004C12.4959 23.8899 12.2582 23.6161 11.9716 23.3954L29.4997 10.2875L47.0279 23.3927C46.7413 23.6135 46.5036 23.8872 46.3288 24.1977C46.154 24.5083 46.0458 24.8493 46.0104 25.2007L43.5107 49.2304H15.4888L12.9891 25.2033ZM25.3748 33.371C25.3748 32.3194 25.8094 31.3109 26.583 30.5674C27.3565 29.8238 28.4057 29.4061 29.4997 29.4061C30.5937 29.4061 31.6429 29.8238 32.4165 30.5674C33.1901 31.3109 33.6246 32.3194 33.6246 33.371C33.6246 34.4225 33.1901 35.431 32.4165 36.1745C31.6429 36.9181 30.5937 37.3358 29.4997 37.3358C28.4057 37.3358 27.3565 36.9181 26.583 36.1745C25.8094 35.431 25.3748 34.4225 25.3748 33.371ZM29.4997 24.1196C26.9471 24.1196 24.499 25.0943 22.694 26.8293C20.889 28.5642 19.8749 30.9173 19.8749 33.371C19.8749 35.8246 20.889 38.1777 22.694 39.9126C24.499 41.6476 26.9471 42.6223 29.4997 42.6223C32.0524 42.6223 34.5005 41.6476 36.3055 39.9126C38.1105 38.1777 39.1245 35.8246 39.1245 33.371C39.1245 30.9173 38.1105 28.5642 36.3055 26.8293C34.5005 25.0943 32.0524 24.1196 29.4997 24.1196Z" fill="#101935"/>
</svg>
