<svg width="51" height="50" viewBox="0 0 51 50" fill="none" xmlns="http://www.w3.org/2000/svg">
<path d="M44.7962 4.0816H7.29622C6.04622 4.0816 5.21289 4.91494 5.21289 6.16494V43.6649C5.21289 44.9149 6.04622 45.7483 7.29622 45.7483H44.7962C46.0462 45.7483 46.8796 44.9149 46.8796 43.6649V6.16494C46.8796 4.91494 46.0462 4.0816 44.7962 4.0816ZM21.8796 41.5816V33.2483H30.2129V41.5816H21.8796ZM21.8796 29.0816V20.7483H30.2129V29.0816H21.8796ZM9.37956 20.7483H17.7129V29.0816H9.37956V20.7483ZM21.8796 16.5816V8.24827H30.2129V16.5816H21.8796ZM34.3796 20.7483H42.7129V29.0816H34.3796V20.7483ZM42.7129 16.5816H34.3796V8.24827H42.7129V16.5816ZM17.7129 8.24827V16.5816H9.37956V8.24827H17.7129ZM9.37956 33.2483H17.7129V41.5816H9.37956V33.2483ZM34.3796 41.5816V33.2483H42.7129V41.5816H34.3796Z" fill="#101935"/>
</svg>
