<svg width="67" height="58" viewBox="0 0 67 58" fill="none" xmlns="http://www.w3.org/2000/svg">
<mask id="path-1-inside-1_6_21" fill="white">
<path d="M33.0508 9.19099L31.3931 10.8025C31.6079 11.0274 31.8654 11.2063 32.1502 11.3285C32.435 11.4508 32.7413 11.5137 33.0508 11.5137C33.3603 11.5137 33.6666 11.4508 33.9514 11.3285C34.2362 11.2063 34.4937 11.0274 34.7085 10.8025L33.0508 9.19099ZM17.705 43.0319C17.2328 42.6399 16.6257 42.4532 16.0172 42.5131C15.4087 42.573 14.8486 42.8744 14.4603 43.3511C14.0719 43.8278 13.8871 44.4407 13.9464 45.055C14.0056 45.6693 14.3042 46.2347 14.7765 46.6267L17.705 43.0319ZM3.40297 33.7071C3.54809 33.9748 3.74404 34.2111 3.97963 34.4025C4.21522 34.5938 4.48583 34.7364 4.77602 34.8222C5.0662 34.9079 5.37028 34.9351 5.67088 34.9023C5.97149 34.8694 6.26273 34.7771 6.52799 34.6306C6.79325 34.484 7.02732 34.2862 7.21685 34.0484C7.40638 33.8106 7.54765 33.5374 7.6326 33.2444C7.71755 32.9515 7.7445 32.6445 7.71193 32.3411C7.67936 32.0376 7.58791 31.7436 7.44278 31.4758L3.40297 33.7071ZM4.65543 20.462C4.65543 13.7992 8.3852 8.20861 13.4779 5.85648C18.4264 3.57253 25.0755 4.17683 31.3931 10.8025L34.7085 7.58262C27.2182 -0.279508 18.5124 -1.57798 11.5624 1.62947C4.76594 4.76874 0.0507812 12.0576 0.0507812 20.462H4.65543ZM22.2974 52.5768C23.8722 53.8288 25.5605 55.1613 27.2704 56.1716C28.9803 57.1819 30.9326 58 33.0508 58V53.3515C32.0992 53.3515 30.9818 52.9796 29.5942 52.1584C28.2036 51.3403 26.7639 50.2122 25.1492 48.9262L22.2974 52.5768ZM43.8042 52.5768C48.1817 49.0904 53.7809 45.0989 58.1707 40.1065C62.6433 35.0241 66.0508 28.7239 66.0508 20.462H61.4461C61.4461 27.2736 58.6833 32.5201 54.7295 37.0199C50.6927 41.6064 45.6061 45.2229 40.9524 48.9262L43.8042 52.5768ZM66.0508 20.462C66.0508 12.0576 61.3387 4.76874 54.5392 1.62947C47.5892 -1.57798 38.8895 -0.279508 31.3931 7.57952L34.7085 10.8025C41.026 4.17993 47.6751 3.57253 52.6236 5.85648C57.7164 8.20861 61.4461 13.7961 61.4461 20.462H66.0508ZM40.9524 48.9262C39.3377 50.2122 37.8979 51.3403 36.5073 52.1584C35.1167 52.9765 34.0024 53.3515 33.0508 53.3515V58C35.1689 58 37.1213 57.1788 38.8312 56.1716C40.5441 55.1613 42.2294 53.8288 43.8042 52.5768L40.9524 48.9262ZM25.1492 48.9262C22.7057 46.9831 20.2222 45.1237 17.705 43.0319L14.7765 46.6267C17.3244 48.7433 20.0196 50.7639 22.2974 52.5768L25.1492 48.9262ZM7.44278 31.4789C5.59332 28.1086 4.63346 24.3148 4.65543 20.462H0.0507812C0.0507812 25.5381 1.34008 29.8984 3.40297 33.7071L7.44278 31.4789Z"/>
</mask>
<path d="M33.0508 9.19099L31.3931 10.8025C31.6079 11.0274 31.8654 11.2063 32.1502 11.3285C32.435 11.4508 32.7413 11.5137 33.0508 11.5137C33.3603 11.5137 33.6666 11.4508 33.9514 11.3285C34.2362 11.2063 34.4937 11.0274 34.7085 10.8025L33.0508 9.19099ZM17.705 43.0319C17.2328 42.6399 16.6257 42.4532 16.0172 42.5131C15.4087 42.573 14.8486 42.8744 14.4603 43.3511C14.0719 43.8278 13.8871 44.4407 13.9464 45.055C14.0056 45.6693 14.3042 46.2347 14.7765 46.6267L17.705 43.0319ZM3.40297 33.7071C3.54809 33.9748 3.74404 34.2111 3.97963 34.4025C4.21522 34.5938 4.48583 34.7364 4.77602 34.8222C5.0662 34.9079 5.37028 34.9351 5.67088 34.9023C5.97149 34.8694 6.26273 34.7771 6.52799 34.6306C6.79325 34.484 7.02732 34.2862 7.21685 34.0484C7.40638 33.8106 7.54765 33.5374 7.6326 33.2444C7.71755 32.9515 7.7445 32.6445 7.71193 32.3411C7.67936 32.0376 7.58791 31.7436 7.44278 31.4758L3.40297 33.7071ZM4.65543 20.462C4.65543 13.7992 8.3852 8.20861 13.4779 5.85648C18.4264 3.57253 25.0755 4.17683 31.3931 10.8025L34.7085 7.58262C27.2182 -0.279508 18.5124 -1.57798 11.5624 1.62947C4.76594 4.76874 0.0507812 12.0576 0.0507812 20.462H4.65543ZM22.2974 52.5768C23.8722 53.8288 25.5605 55.1613 27.2704 56.1716C28.9803 57.1819 30.9326 58 33.0508 58V53.3515C32.0992 53.3515 30.9818 52.9796 29.5942 52.1584C28.2036 51.3403 26.7639 50.2122 25.1492 48.9262L22.2974 52.5768ZM43.8042 52.5768C48.1817 49.0904 53.7809 45.0989 58.1707 40.1065C62.6433 35.0241 66.0508 28.7239 66.0508 20.462H61.4461C61.4461 27.2736 58.6833 32.5201 54.7295 37.0199C50.6927 41.6064 45.6061 45.2229 40.9524 48.9262L43.8042 52.5768ZM66.0508 20.462C66.0508 12.0576 61.3387 4.76874 54.5392 1.62947C47.5892 -1.57798 38.8895 -0.279508 31.3931 7.57952L34.7085 10.8025C41.026 4.17993 47.6751 3.57253 52.6236 5.85648C57.7164 8.20861 61.4461 13.7961 61.4461 20.462H66.0508ZM40.9524 48.9262C39.3377 50.2122 37.8979 51.3403 36.5073 52.1584C35.1167 52.9765 34.0024 53.3515 33.0508 53.3515V58C35.1689 58 37.1213 57.1788 38.8312 56.1716C40.5441 55.1613 42.2294 53.8288 43.8042 52.5768L40.9524 48.9262ZM25.1492 48.9262C22.7057 46.9831 20.2222 45.1237 17.705 43.0319L14.7765 46.6267C17.3244 48.7433 20.0196 50.7639 22.2974 52.5768L25.1492 48.9262ZM7.44278 31.4789C5.59332 28.1086 4.63346 24.3148 4.65543 20.462H0.0507812C0.0507812 25.5381 1.34008 29.8984 3.40297 33.7071L7.44278 31.4789Z" fill="#101935"/>
<path d="M25.1492 48.9262L84.2528 95.0972L-33.9405 2.73736L25.1492 48.9262ZM43.8042 52.5768L-15.2994 98.7478L102.922 6.42349L43.8042 52.5768ZM23.7248 50.7484L82.8145 96.9372L84.2389 95.115L25.1492 48.9262L-33.9405 2.73736L-35.3649 4.55957L23.7248 50.7484ZM42.3767 50.7484L-16.7407 96.9017L-15.3133 98.7301L43.8042 52.5768L102.922 6.42349L101.494 4.59508L42.3767 50.7484ZM14.7765 46.6267L72.9234 93.9968L75.852 90.402L17.705 43.0319L-40.442 -4.3382L-43.3705 -0.743389L14.7765 46.6267ZM0.0507812 20.462V95.462H4.65543V20.462V-54.538H0.0507812V20.462ZM33.0508 58H108.051V53.3515H33.0508H-41.9492V58H33.0508ZM25.1492 48.9262L-33.9544 2.75513L-36.8062 6.40574L22.2974 52.5768L81.401 98.7478L84.2528 95.0972L25.1492 48.9262ZM66.0508 20.462V-54.538H61.4461V20.462V95.462H66.0508V20.462ZM40.9524 48.9262L-18.1512 95.0972L-15.2994 98.7478L43.8042 52.5768L102.908 6.40575L100.056 2.75514L40.9524 48.9262ZM25.1492 48.9262L118.602 -68.4052L118.555 -68.4423L118.508 -68.4794L25.1492 48.9262ZM33.0508 9.19099L137.607 -98.3633L33.0509 -200.006L-71.5057 -98.3633L33.0508 9.19099ZM31.3931 10.8025L-77.1665 114.315L-77.1324 114.351L-77.0983 114.386L31.3931 10.8025ZM34.7085 10.8025L143.2 114.386L143.222 114.363L143.244 114.34L34.7085 10.8025ZM43.8042 52.5768L137.151 169.992L137.202 169.952L137.253 169.911L43.8042 52.5768ZM17.705 43.0319L113.574 -72.3333L113.548 -72.3549L113.522 -72.3766L17.705 43.0319ZM14.7765 46.6267L110.626 -68.7544L110.61 -68.7681L110.593 -68.7818L14.7765 46.6267ZM3.40297 33.7071L-128.493 105.146L-128.484 105.162L-128.475 105.179L3.40297 33.7071ZM7.44278 31.4758L139.321 -39.996L67.2764 -172.93L-65.0788 -99.8278L7.44278 31.4758ZM4.65543 20.462L154.653 21.3173L154.655 20.8896V20.462H4.65543ZM13.4779 5.85648L-49.3818 -130.337L-49.3993 -130.329L-49.4168 -130.321L13.4779 5.85648ZM34.7085 7.58262L139.213 115.187L245.789 11.6814L143.312 -95.8837L34.7085 7.58262ZM11.5624 1.62947L-51.2927 -134.566L-51.3147 -134.556L-51.3366 -134.546L11.5624 1.62947ZM22.2974 52.5768L-71.1141 169.941L-71.082 169.966L-71.0499 169.992L22.2974 52.5768ZM29.5942 52.1584L105.995 -76.9266L105.826 -77.0268L105.656 -77.1265L29.5942 52.1584ZM58.1707 40.1065L-54.4342 -58.9902L-54.4554 -58.9661L-54.4766 -58.9419L58.1707 40.1065ZM54.7295 37.0199L167.329 136.123L167.369 136.077L167.41 136.031L54.7295 37.0199ZM40.9524 48.9262L-52.4482 -68.4465L-52.4741 -68.4258L-52.5 -68.4052L40.9524 48.9262ZM54.5392 1.62947L117.415 -134.557L117.405 -134.561L117.394 -134.566L54.5392 1.62947ZM31.3931 7.57952L-77.1476 -95.9526L-179.703 11.5639L-73.1635 115.134L31.3931 7.57952ZM52.6236 5.85648L115.518 -130.321L115.501 -130.329L115.483 -130.337L52.6236 5.85648ZM38.8312 56.1716L114.961 185.416L114.997 185.395L115.033 185.374L38.8312 56.1716ZM7.44278 31.4789L79.8871 162.825L210.952 90.5361L138.944 -40.6833L7.44278 31.4789ZM33.0508 9.19099L-71.5057 -98.3633L-73.1634 -96.7519L31.3931 10.8025L135.95 118.357L137.607 116.745L33.0508 9.19099ZM31.3931 10.8025L-77.0983 114.386C-62.9645 129.19 -45.9389 141.047 -26.9971 149.175L32.1502 11.3285L91.2975 -126.518C109.67 -118.635 126.18 -107.135 139.885 -92.7814L31.3931 10.8025ZM32.1502 11.3285L-26.9971 149.175C-8.05189 157.304 12.3754 161.514 33.0508 161.514V11.5137V-138.486C53.1072 -138.486 72.9219 -134.402 91.2975 -126.518L32.1502 11.3285ZM33.0508 11.5137V161.514C53.7263 161.514 74.1536 157.304 93.0987 149.175L33.9514 11.3285L-25.1959 -126.518C-6.82049 -134.402 12.9942 -138.486 33.0508 -138.486V11.5137ZM33.9514 11.3285L93.0987 149.175C112.04 141.047 129.066 129.19 143.2 114.386L34.7085 10.8025L-73.7829 -92.7814C-60.0787 -107.135 -43.5681 -118.635 -25.1959 -126.518L33.9514 11.3285ZM34.7085 10.8025L139.265 -96.7518L137.607 -98.3633L33.0508 9.19099L-71.5058 116.745L-69.8482 118.357L34.7085 10.8025ZM17.705 43.0319L113.522 -72.3766C82.3498 -98.257 41.9895 -110.766 1.33208 -106.766L16.0172 42.5131L30.7022 191.793C-8.73817 195.672 -47.8842 183.537 -78.1119 158.44L17.705 43.0319ZM16.0172 42.5131L1.33208 -106.766C-39.3107 -102.768 -76.3558 -82.6634 -101.834 -51.389L14.4603 43.3511L130.754 138.091C106.053 168.412 70.128 187.914 30.7022 191.793L16.0172 42.5131ZM14.4603 43.3511L-101.834 -51.389C-127.27 -20.1655 -139.198 19.7055 -135.36 59.4671L13.9464 45.055L163.252 30.643C166.972 69.1759 155.414 107.821 130.754 138.091L14.4603 43.3511ZM13.9464 45.055L-135.36 59.4671C-131.52 99.2405 -112.161 136.198 -81.0405 162.035L14.7765 46.6267L110.593 -68.7818C140.769 -43.7285 159.532 -7.90188 163.252 30.643L13.9464 45.055ZM3.40297 33.7071L-128.475 105.179C-118.994 122.673 -106.141 138.205 -90.5846 150.84L3.97963 34.4025L98.5439 -82.0347C113.629 -69.7831 126.09 -54.7232 135.281 -37.7647L3.40297 33.7071ZM3.97963 34.4025L-90.5846 150.84C-75.0251 163.476 -57.0741 172.957 -37.7342 178.672L4.77602 34.8222L47.2862 -109.028C66.0458 -103.484 83.4556 -94.2886 98.5439 -82.0347L3.97963 34.4025ZM4.77602 34.8222L-37.7342 178.672C-18.3916 184.388 1.90592 186.209 21.9801 184.013L5.67088 34.9023L-10.6384 -114.208C8.83464 -116.338 28.524 -114.573 47.2862 -109.028L4.77602 34.8222ZM5.67088 34.9023L21.9801 184.013C42.0549 181.817 61.4476 175.656 79.0495 165.934L6.52799 34.6306L-65.9936 -96.673C-48.9221 -106.102 -30.1119 -112.079 -10.6384 -114.208L5.67088 34.9023ZM6.52799 34.6306L79.0495 165.934C96.648 156.214 112.083 143.143 124.524 127.531L7.21685 34.0484L-110.09 -59.4344C-98.0286 -74.5701 -83.0615 -87.246 -65.9936 -96.673L6.52799 34.6306ZM7.21685 34.0484L124.524 127.531C136.961 111.924 146.173 94.0733 151.698 75.0192L7.6326 33.2444L-136.433 -8.53038C-131.078 -26.9985 -122.149 -44.3029 -110.09 -59.4344L7.21685 34.0484ZM7.6326 33.2444L151.698 75.0192C157.223 55.9671 158.969 36.0323 156.855 16.3344L7.71193 32.3411L-141.432 48.3477C-143.48 29.2568 -141.788 9.93588 -136.433 -8.53038L7.6326 33.2444ZM7.71193 32.3411L156.855 16.3344C154.741 -3.36427 148.8 -22.5048 139.321 -39.996L7.44278 31.4758L-124.435 102.948C-133.624 85.9919 -139.383 67.4394 -141.432 48.3477L7.71193 32.3411ZM7.44278 31.4758L-65.0788 -99.8278L-69.1186 -97.5965L3.40297 33.7071L75.9245 165.011L79.9644 162.779L7.44278 31.4758ZM4.65543 20.462H154.655C154.655 69.1823 127.15 118.582 76.3726 142.034L13.4779 5.85648L-49.4168 -130.321C-110.379 -102.165 -145.345 -41.584 -145.345 20.462H4.65543ZM13.4779 5.85648L76.3377 142.05C50.3698 154.035 19.6288 158.252 -11.1369 151.3C-41.6655 144.402 -63.5798 128.564 -77.1665 114.315L31.3931 10.8025L139.953 -92.7099C95.2381 -139.605 21.188 -162.908 -49.3818 -130.337L13.4779 5.85648ZM31.3931 10.8025L135.898 118.407L139.213 115.187L34.7085 7.58262L-69.7964 -100.022L-73.1117 -96.8021L31.3931 10.8025ZM34.7085 7.58262L143.312 -95.8837C97.6772 -143.784 21.5985 -168.206 -51.2927 -134.566L11.5624 1.62947L74.4175 137.825C48.483 149.794 18.6305 153.314 -10.3652 146.712C-39.1046 140.169 -60.2848 125.335 -73.895 111.049L34.7085 7.58262ZM11.5624 1.62947L-51.3366 -134.546C-114.045 -105.581 -149.949 -43.2732 -149.949 20.462H0.0507812H150.051C150.051 67.3883 123.577 115.119 74.4615 137.805L11.5624 1.62947ZM22.2974 52.5768L-71.0499 169.992C-70.7619 170.221 -61.1284 178.168 -49.0332 185.314L27.2704 56.1716L103.574 -72.9708C108.69 -69.9478 112.344 -67.3068 113.936 -66.1292C115.471 -64.9934 116.551 -64.118 115.645 -64.8382L22.2974 52.5768ZM27.2704 56.1716L-49.0332 185.314C-36.7303 192.583 -7.44652 208 33.0508 208V58V-92C69.3118 -92 94.6908 -78.2194 103.574 -72.9708L27.2704 56.1716ZM33.0508 53.3515V-96.6485C70.446 -96.6485 96.6589 -82.4522 105.995 -76.9266L29.5942 52.1584L-46.8064 181.243C-34.6954 188.411 -6.24768 203.352 33.0508 203.352V53.3515ZM29.5942 52.1584L105.656 -77.1265C111.156 -73.891 115.09 -71.0382 116.756 -69.804C118.358 -68.6172 119.441 -67.7369 118.602 -68.4052L25.1492 48.9262L-68.3032 166.258C-68.1443 166.384 -58.5169 174.354 -46.4677 181.443L29.5942 52.1584ZM43.8042 52.5768L137.253 169.911C137.197 169.955 137.289 169.881 137.711 169.553C137.917 169.392 138.137 169.221 138.449 168.978C138.737 168.755 139.108 168.466 139.495 168.164C140.99 166.999 143.537 165.006 146.406 162.641C151.935 158.082 161.195 150.099 170.818 139.155L58.1707 40.1065L-54.4766 -58.9419C-51.7218 -62.0749 -49.3364 -64.42 -47.6975 -65.9507C-46.0612 -67.479 -44.8604 -68.4815 -44.4404 -68.8278C-44.0668 -69.1359 -44.0152 -69.165 -44.9385 -68.4453C-45.1562 -68.2757 -45.3846 -68.098 -45.6906 -67.8602C-45.9722 -67.6412 -46.3397 -67.3555 -46.7143 -67.0635C-47.4542 -66.4868 -48.4947 -65.6733 -49.6444 -64.7577L43.8042 52.5768ZM58.1707 40.1065L170.776 139.203C191.899 115.2 216.051 75.092 216.051 20.462H66.0508H-83.9492C-83.9492 3.14637 -80.2133 -13.5281 -73.7585 -28.3646C-67.5646 -42.6015 -59.9313 -52.7437 -54.4342 -58.9902L58.1707 40.1065ZM61.4461 20.462H-88.5539C-88.5539 2.69474 -84.7699 -14.6061 -77.9918 -30.197C-71.5071 -45.1128 -63.5167 -55.6567 -57.9508 -61.9911L54.7295 37.0199L167.41 136.031C187.956 112.648 211.446 73.6218 211.446 20.462H61.4461ZM54.7295 37.0199L-57.8699 -62.083C-55.0416 -65.2965 -52.5544 -67.746 -50.7734 -69.407C-49.0113 -71.0502 -47.7039 -72.1396 -47.2399 -72.5215C-46.8382 -72.852 -46.7648 -72.8984 -47.7462 -72.133C-47.9748 -71.9548 -48.2091 -71.7724 -48.5254 -71.5262C-48.819 -71.2977 -49.1867 -71.0115 -49.5683 -70.7137C-50.3279 -70.1209 -51.3353 -69.3321 -52.4482 -68.4465L40.9524 48.9262L134.353 166.299C134.752 165.981 134.877 165.889 136.748 164.43C138.155 163.332 140.625 161.401 143.384 159.13C148.786 154.685 157.856 146.886 167.329 136.123L54.7295 37.0199ZM66.0508 20.462H216.051C216.051 -43.241 180.175 -105.581 117.415 -134.557L54.5392 1.62947L-8.33649 137.816C-57.4978 115.118 -83.9492 67.3561 -83.9492 20.462H66.0508ZM54.5392 1.62947L117.394 -134.566C44.4817 -168.216 -31.5493 -143.757 -77.1476 -95.9526L31.3931 7.57952L139.934 111.112C126.351 125.352 105.193 140.174 76.4616 146.714C47.462 153.314 17.6111 149.791 -8.31599 137.825L54.5392 1.62947ZM31.3931 7.57952L-73.1635 115.134L-69.8481 118.357L34.7085 10.8025L139.265 -96.7518L135.95 -99.9748L31.3931 7.57952ZM34.7085 10.8025L143.244 114.34C129.664 128.576 107.764 144.4 77.2561 151.297C46.507 158.249 15.7586 154.048 -10.2361 142.05L52.6236 5.85648L115.483 -130.337C44.8756 -162.926 -29.1534 -139.565 -73.827 -92.7352L34.7085 10.8025ZM52.6236 5.85648L-10.2711 142.034C-61.0337 118.589 -88.5539 69.1959 -88.5539 20.462H61.4461H211.446C211.446 -41.6038 176.466 -102.171 115.518 -130.321L52.6236 5.85648ZM40.9524 48.9262L-52.5 -68.4052C-53.3391 -67.7369 -52.256 -68.6172 -50.6543 -69.804C-48.9885 -71.0382 -45.054 -73.891 -39.5546 -77.1265L36.5073 52.1584L112.569 181.443C124.618 174.354 134.246 166.384 134.405 166.258L40.9524 48.9262ZM36.5073 52.1584L-39.5546 -77.1265C-30.7893 -82.2833 -4.53591 -96.6485 33.0508 -96.6485V53.3515V203.352C72.5407 203.352 101.023 188.236 112.569 181.443L36.5073 52.1584ZM33.0508 58V208C73.6372 208 102.936 192.499 114.961 185.416L38.8312 56.1716L-37.2988 -73.0733C-28.6939 -78.1419 -3.29934 -92 33.0508 -92V58ZM38.8312 56.1716L115.033 185.374C127.232 178.179 136.969 170.137 137.151 169.992L43.8042 52.5768L-49.5431 -64.8382C-50.4994 -64.078 -49.3999 -64.9696 -47.8596 -66.1095C-46.2496 -67.301 -42.551 -69.9756 -37.371 -73.0307L38.8312 56.1716ZM25.1492 48.9262L118.508 -68.4794C117.357 -69.395 116.318 -70.2073 115.557 -70.8013C115.18 -71.095 114.801 -71.3901 114.523 -71.6063C114.219 -71.8435 113.992 -72.0203 113.784 -72.1822C112.904 -72.8697 113.068 -72.7539 113.574 -72.3333L17.705 43.0319L-78.1641 158.397C-75.1407 160.909 -72.4764 163.001 -70.8748 164.252C-68.718 165.936 -68.7563 165.897 -68.21 166.332L25.1492 48.9262ZM14.7765 46.6267L-81.0734 162.008C-77.9891 164.57 -75.2235 166.737 -73.6308 167.98C-73.1398 168.363 -71.735 169.455 -71.6694 169.507C-71.1899 169.88 -71.0743 169.972 -71.1141 169.941L22.2974 52.5768L115.709 -64.7871C114.53 -65.7253 113.455 -66.5654 112.709 -67.1467C112.332 -67.44 111.948 -67.7382 111.668 -67.9566C111.359 -68.1965 111.124 -68.3795 110.907 -68.5486C109.946 -69.2987 110.09 -69.2 110.626 -68.7544L14.7765 46.6267ZM7.44278 31.4789L138.944 -40.6833C149.399 -21.632 154.776 -0.286909 154.653 21.3173L4.65543 20.462L-145.342 19.6067C-145.509 48.9165 -138.212 77.8492 -124.059 103.641L7.44278 31.4789ZM0.0507812 20.462H-149.949C-149.949 52.4249 -141.478 81.1708 -128.493 105.146L3.40297 33.7071L135.299 -37.7318C144.159 -21.374 150.051 -1.3486 150.051 20.462H0.0507812ZM3.40297 33.7071L75.8473 165.053L79.8871 162.825L7.44278 31.4789L-65.0015 -99.8673L-69.0414 -97.6391L3.40297 33.7071Z" fill="#101935" mask="url(#path-1-inside-1_6_21)"/>
</svg>
