<svg width="63" height="61" viewBox="0 0 63 61" fill="none" xmlns="http://www.w3.org/2000/svg">
<g filter="url(#filter0_d_6_10)">
<path d="M58.1975 7.48218L51.515 0.79968C50.9998 0.28749 50.3028 0 49.5763 0C48.8498 0 48.1528 0.28749 47.6375 0.79968L32.2925 16.1447C32.0376 16.4016 31.836 16.7064 31.6991 17.0414C31.5623 17.3765 31.4929 17.7353 31.495 18.0972V24.7522C31.495 25.4815 31.7847 26.181 32.3005 26.6967C32.8162 27.2124 33.5157 27.5022 34.245 27.5022H40.9C41.2619 27.5043 41.6207 27.4349 41.9558 27.298C42.2908 27.1612 42.5956 26.9596 42.8525 26.7047L58.1975 11.3597C58.7097 10.8444 58.9972 10.1474 58.9972 9.42093C58.9972 8.69442 58.7097 7.99743 58.1975 7.48218ZM39.745 22.0022H36.995V19.2522L49.59 6.65718L52.34 9.40718L39.745 22.0022ZM50.745 27.5022C50.0157 27.5022 49.3162 27.7919 48.8005 28.3076C48.2847 28.8234 47.995 29.5228 47.995 30.2522C47.995 35.3576 45.9669 40.2539 42.3568 43.864C38.7467 47.4741 33.8504 49.5022 28.745 49.5022H13.3725L15.1325 47.7697C15.3903 47.514 15.5949 47.2099 15.7345 46.8748C15.8741 46.5397 15.946 46.1802 15.946 45.8172C15.946 45.4541 15.8741 45.0947 15.7345 44.7596C15.5949 44.4245 15.3903 44.1203 15.1325 43.8647C12.4401 41.1725 10.6065 37.7424 9.86358 34.008C9.1207 30.2737 9.50192 26.403 10.959 22.8853C12.4161 19.3677 14.8837 16.3611 18.0496 14.2459C21.2155 12.1307 24.9375 11.0019 28.745 11.0022C29.4744 11.0022 30.1738 10.7124 30.6896 10.1967C31.2053 9.681 31.495 8.98153 31.495 8.25218C31.495 7.52283 31.2053 6.82336 30.6896 6.30764C30.1738 5.79191 29.4744 5.50218 28.745 5.50218C24.0905 5.51748 19.5347 6.84495 15.6005 9.33221C11.6663 11.8195 8.51324 15.3657 6.5032 19.5638C4.49316 23.7619 3.70766 28.4417 4.23686 33.066C4.76606 37.6903 6.58851 42.0717 9.49501 45.7072L4.79251 50.2997C4.41093 50.6864 4.15244 51.1775 4.04966 51.7109C3.94688 52.2444 4.00442 52.7964 4.21501 53.2972C4.42132 53.7994 4.77166 54.2293 5.22189 54.5327C5.67212 54.8361 6.20209 54.9995 6.74501 55.0022H28.745C31.9952 55.0022 35.2136 54.362 38.2164 53.1182C41.2192 51.8744 43.9477 50.0513 46.2459 47.7531C48.5442 45.4548 50.3672 42.7264 51.611 39.7236C52.8548 36.7208 53.495 33.5024 53.495 30.2522C53.495 29.5228 53.2053 28.8234 52.6896 28.3076C52.1738 27.7919 51.4744 27.5022 50.745 27.5022Z" fill="#101935"/>
</g>
<defs>
<filter id="filter0_d_6_10" x="0" y="0" width="62.9971" height="63.0022" filterUnits="userSpaceOnUse" color-interpolation-filters="sRGB">
<feFlood flood-opacity="0" result="BackgroundImageFix"/>
<feColorMatrix in="SourceAlpha" type="matrix" values="0 0 0 0 0 0 0 0 0 0 0 0 0 0 0 0 0 0 127 0" result="hardAlpha"/>
<feOffset dy="4"/>
<feGaussianBlur stdDeviation="2"/>
<feComposite in2="hardAlpha" operator="out"/>
<feColorMatrix type="matrix" values="0 0 0 0 0 0 0 0 0 0 0 0 0 0 0 0 0 0 0.25 0"/>
<feBlend mode="normal" in2="BackgroundImageFix" result="effect1_dropShadow_6_10"/>
<feBlend mode="normal" in="SourceGraphic" in2="effect1_dropShadow_6_10" result="shape"/>
</filter>
</defs>
</svg>
