<svg width="163" height="39" viewBox="0 0 163 39" fill="none" xmlns="http://www.w3.org/2000/svg">
<path d="M21.6033 38.286C21.2106 38.348 20.7353 38.3377 20.1773 38.255C19.6193 38.193 19.0199 38.0793 18.3793 37.914C18.0486 37.8107 17.8109 37.6867 17.6663 37.542C17.5423 37.3973 17.3253 37.1287 17.0153 36.736C16.8086 36.426 16.6743 36.0747 16.6123 35.682C16.5709 35.2893 16.6226 34.938 16.7673 34.628C16.9326 34.318 17.2013 34.132 17.5733 34.07C17.7386 34.0287 17.9349 34.07 18.1623 34.194C18.4103 34.2973 18.6686 34.4317 18.9373 34.597C19.3713 34.845 19.8363 35.093 20.3323 35.341C20.8283 35.6097 21.2829 35.713 21.6963 35.651C21.9856 35.589 22.3266 35.5477 22.7193 35.527C23.1326 35.527 23.5253 35.496 23.8973 35.434C24.2899 35.372 24.5999 35.2583 24.8273 35.093C25.9226 34.349 26.7389 33.76 27.2763 33.326C27.8136 32.8713 28.0823 32.644 28.0823 32.644C28.1236 32.5613 28.1959 32.4993 28.2993 32.458C28.4233 32.396 28.5679 32.334 28.7333 32.272C28.8573 32.148 29.0536 31.9517 29.3223 31.683C29.5909 31.3937 29.8493 31.1147 30.0973 30.846C30.3659 30.5773 30.5313 30.4223 30.5933 30.381C30.6346 30.195 30.6759 30.0503 30.7173 29.947C30.7586 29.823 30.7793 29.699 30.7793 29.575C30.9446 29.4097 31.1616 29.0687 31.4303 28.552C31.7196 28.0147 32.0089 27.4257 32.2983 26.785C32.5876 26.1237 32.7943 25.5243 32.9183 24.987C33.1869 23.8503 33.2799 22.817 33.1973 21.887C33.1146 20.957 32.8769 20.12 32.4843 19.376C32.0916 18.632 31.5646 17.981 30.9033 17.423C30.6759 17.237 30.3659 17.0407 29.9733 16.834C29.5806 16.6067 29.1776 16.4 28.7643 16.214C28.3509 16.0073 27.9789 15.8523 27.6483 15.749C27.3383 15.6457 27.1523 15.6043 27.0903 15.625C27.0076 15.6457 26.8423 15.966 26.5943 16.586C26.3669 17.1853 26.0776 17.9603 25.7263 18.911C25.3956 19.8617 25.0339 20.8847 24.6413 21.98C24.2693 23.0547 23.9076 24.0777 23.5563 25.049C23.4529 25.4417 23.3186 25.855 23.1533 26.289C23.0086 26.723 22.8846 27.1053 22.7812 27.436C22.6779 27.746 22.6263 27.9527 22.6263 28.056C22.3989 28.4073 22.1613 28.9447 21.9133 29.668C21.6653 30.3913 21.4586 31.4247 21.2933 32.768C21.1073 33.4707 20.9729 34.0597 20.8903 34.535C20.8076 34.9897 20.7249 35.2067 20.6423 35.186C20.6423 35.186 20.6319 35.279 20.6113 35.465C20.5906 35.6717 20.5493 35.806 20.4873 35.868C20.4873 35.992 20.3633 36.0747 20.1153 36.116C19.8673 36.1573 19.5779 36.1057 19.2473 35.961C18.9166 35.8163 18.6066 35.5373 18.3173 35.124C18.2553 34.8967 18.2036 34.566 18.1623 34.132C18.1416 33.6773 18.2139 33.1503 18.3793 32.551C18.4826 32.1583 18.6273 31.652 18.8133 31.032C18.9993 30.412 19.2059 29.7713 19.4333 29.11C19.6606 28.4487 19.8673 27.839 20.0533 27.281C20.2599 26.723 20.4046 26.3097 20.4873 26.041C20.6319 25.6897 20.8386 25.0283 21.1073 24.057C21.2726 23.5197 21.4379 22.9823 21.6033 22.445C21.7893 21.9077 21.9649 21.4323 22.1303 21.019C22.2956 20.585 22.4093 20.306 22.4713 20.182C22.5746 19.9133 22.6986 19.4793 22.8433 18.88C23.0086 18.26 23.2566 17.5573 23.5873 16.772L23.8043 15.749L23.4633 15.594C23.2153 15.6767 23.0189 15.7077 22.8743 15.687C22.7503 15.6457 22.6676 15.6147 22.6263 15.594C22.5023 15.6353 22.3369 15.6043 22.1303 15.501C21.9443 15.377 21.7686 15.222 21.6033 15.036C21.4586 14.85 21.3656 14.695 21.3243 14.571C21.2829 14.4883 21.2519 14.385 21.2313 14.261C21.2313 14.1163 21.2313 14.044 21.2313 14.044C21.2519 13.92 21.4276 13.796 21.7583 13.672C22.0889 13.5273 22.5126 13.393 23.0293 13.269C23.5666 13.145 24.1349 13.052 24.7343 12.99C25.3336 12.928 25.8916 12.9177 26.4083 12.959C26.9456 13.0003 27.6069 13.1243 28.3923 13.331C29.1776 13.5377 29.8493 13.7443 30.4073 13.951C31.0686 14.199 31.7816 14.6227 32.5462 15.222C33.3109 15.8213 34.0033 16.5343 34.6233 17.361C35.2639 18.1877 35.6876 19.0557 35.8943 19.965C35.9563 20.213 36.0183 20.5643 36.0803 21.019C36.1423 21.4737 36.1733 21.918 36.1733 22.352C36.1939 22.7653 36.1526 23.034 36.0493 23.158C36.0079 23.2407 35.9769 23.344 35.9563 23.468C35.9563 23.5713 35.9976 23.6437 36.0803 23.685C36.0596 23.747 35.9873 23.9847 35.8633 24.398C35.7393 24.7907 35.6256 25.1317 35.5223 25.421C35.4809 25.9583 35.3363 26.5783 35.0883 27.281C34.8609 27.9837 34.6026 28.6553 34.3133 29.296C34.0446 29.916 33.8069 30.4017 33.6003 30.753C33.5176 30.753 33.4349 30.7737 33.3523 30.815C33.2903 30.8357 33.3006 30.8563 33.3833 30.877C33.3833 30.9803 33.2696 31.1767 33.0423 31.466C32.9596 31.528 32.8253 31.683 32.6393 31.931C32.4739 32.1583 32.3396 32.3133 32.2363 32.396C32.2156 32.5407 32.1536 32.6647 32.0503 32.768C31.9469 32.8507 31.8539 32.892 31.7713 32.892C31.7713 32.892 31.7506 32.892 31.7093 32.892C31.6886 32.892 31.6783 32.9333 31.6783 33.016C31.5129 33.264 31.2339 33.5843 30.8413 33.977C30.4486 34.3697 30.0043 34.7727 29.5083 35.186C29.0123 35.5993 28.5163 35.9817 28.0203 36.333C27.5243 36.6843 27.0696 36.9427 26.6563 37.108C26.4496 37.2527 26.2326 37.3663 26.0053 37.449C25.7779 37.5523 25.5609 37.6557 25.3543 37.759C25.2509 37.8417 24.9513 37.914 24.4553 37.976C23.9593 38.038 23.4323 38.0897 22.8743 38.131C22.3369 38.1723 21.9133 38.224 21.6033 38.286ZM42.6113 34.38C41.9913 34.7313 41.33 34.938 40.6273 35C39.9453 35.0413 39.3047 34.9483 38.7053 34.721C38.106 34.473 37.6203 34.1113 37.2483 33.636C37.0417 33.3673 36.8453 32.9437 36.6593 32.365C36.4733 31.7657 36.4423 30.9597 36.5663 29.947C36.6903 28.9963 36.9797 28.0353 37.4343 27.064C37.9097 26.0927 38.4883 25.235 39.1703 24.491C39.8523 23.747 40.5963 23.2407 41.4023 22.972C41.6917 22.8687 41.981 22.7963 42.2703 22.755C42.5803 22.693 42.9833 22.6827 43.4793 22.724C43.9547 22.786 44.3783 22.91 44.7503 23.096C45.1223 23.2613 45.391 23.4473 45.5563 23.654C45.887 23.9847 46.104 24.305 46.2073 24.615C46.3107 24.925 46.352 25.2247 46.3313 25.514C46.228 26.1753 45.9283 26.8883 45.4323 27.653C44.957 28.4177 44.2853 28.986 43.4173 29.358C43.066 29.5027 42.6527 29.5957 42.1773 29.637C41.702 29.6783 41.051 29.6163 40.2243 29.451C39.7283 29.3477 39.3977 29.3993 39.2323 29.606C39.0877 29.8127 39.0257 30.2157 39.0463 30.815C39.0877 31.187 39.1703 31.5177 39.2943 31.807C39.439 32.0757 39.6973 32.2617 40.0693 32.365C40.5447 32.4477 40.8857 32.458 41.0923 32.396C41.299 32.3133 41.5573 32.1997 41.8673 32.055C42.0327 31.9517 42.1877 31.838 42.3323 31.714C42.4977 31.59 42.6527 31.466 42.7973 31.342C42.9627 31.218 43.097 31.125 43.2003 31.063C43.3037 30.9803 43.407 30.9287 43.5103 30.908C43.6137 30.8873 43.717 30.877 43.8203 30.877C44.0477 30.8977 44.2647 31.0217 44.4713 31.249C44.678 31.4763 44.8123 31.6933 44.8743 31.9C44.8743 32.0653 44.771 32.303 44.5643 32.613C44.3577 32.9023 44.0787 33.2123 43.7273 33.543C43.3967 33.853 43.0247 34.132 42.6113 34.38ZM42.2083 27.467C42.353 27.405 42.5597 27.2603 42.8283 27.033C43.1177 26.8057 43.376 26.568 43.6033 26.32C43.8307 26.0513 43.9443 25.8447 43.9443 25.7C43.9443 25.4727 43.7893 25.2763 43.4793 25.111C43.19 24.9457 42.8077 24.9147 42.3323 25.018C42.167 25.0593 41.9707 25.173 41.7433 25.359C41.516 25.545 41.2887 25.762 41.0613 26.01C40.834 26.2373 40.6377 26.4647 40.4723 26.692C40.307 26.8987 40.1933 27.064 40.1313 27.188C40.214 27.2913 40.3793 27.374 40.6273 27.436C40.8753 27.498 41.144 27.529 41.4333 27.529C41.7433 27.529 42.0017 27.5083 42.2083 27.467ZM49.4308 33.357C49.2862 33.233 49.0898 32.861 48.8418 32.241C48.6145 31.621 48.3872 30.8977 48.1598 30.071C47.9532 29.2443 47.7878 28.4797 47.6638 27.777C47.5812 27.3637 47.4882 27.0123 47.3848 26.723C47.3022 26.4337 47.2298 26.196 47.1678 26.01C47.0645 25.638 47.0955 25.2453 47.2608 24.832C47.4468 24.4187 47.6638 24.1397 47.9118 23.995C48.0152 23.933 48.2012 23.8917 48.4698 23.871C48.7592 23.8297 48.9452 23.8193 49.0278 23.84C49.2758 23.9227 49.5032 24.305 49.7098 24.987C49.9165 25.6483 50.1025 26.5267 50.2678 27.622C50.3505 28.2627 50.4125 28.738 50.4538 29.048C50.5158 29.3373 50.5468 29.5233 50.5468 29.606C50.6295 29.7713 50.6812 29.978 50.7018 30.226C50.7432 30.4533 50.8465 30.4843 51.0118 30.319C51.0945 30.2363 51.2185 30.0917 51.3838 29.885C51.5698 29.6783 51.7868 29.4097 52.0348 29.079C52.4688 28.5003 52.8098 28.025 53.0578 27.653C53.3265 27.2603 53.6262 26.8573 53.9568 26.444C54.1015 26.2373 54.2978 26.01 54.5458 25.762C54.7938 25.514 55.0418 25.2867 55.2898 25.08C55.5378 24.8527 55.7445 24.7183 55.9098 24.677C56.4058 24.5943 56.7055 24.7803 56.8088 25.235C56.9328 25.669 56.7882 26.1753 56.3748 26.754C56.2095 27.002 56.0752 27.2397 55.9718 27.467C55.8892 27.6737 55.8065 27.8183 55.7238 27.901C55.5585 28.2317 55.3002 28.6553 54.9488 29.172C54.5975 29.668 54.2565 30.133 53.9258 30.567C53.5952 30.9803 53.3678 31.249 53.2438 31.373C53.1612 31.4557 52.9752 31.6107 52.6858 31.838C52.4172 32.0653 52.1588 32.3547 51.9108 32.706C51.4148 33.1813 50.9395 33.4707 50.4848 33.574C50.0302 33.6773 49.6788 33.605 49.4308 33.357ZM63.8785 36.581C63.5479 36.6017 63.0725 36.581 62.4525 36.519C61.8532 36.457 61.2125 36.302 60.5305 36.054C59.8692 35.806 59.2699 35.4443 58.7325 34.969C58.2159 34.473 57.8749 33.8117 57.7095 32.985C57.4615 31.8277 57.4099 30.567 57.5545 29.203C57.6992 27.839 57.9472 26.4957 58.2985 25.173C58.4019 24.801 58.5982 24.3257 58.8875 23.747C59.1769 23.1477 59.5179 22.507 59.9105 21.825C60.3239 21.143 60.7475 20.4817 61.1815 19.841C61.6155 19.1797 62.0185 18.6113 62.3905 18.136C62.6592 17.826 63.0002 17.4747 63.4135 17.082C63.8475 16.6687 64.2919 16.276 64.7465 15.904C65.2219 15.5113 65.6455 15.1807 66.0175 14.912C66.4102 14.6227 66.6892 14.447 66.8545 14.385C67.1232 14.261 67.3919 14.1887 67.6605 14.168C67.9292 14.1267 68.2495 14.1577 68.6215 14.261C68.9109 14.2817 69.2209 14.385 69.5515 14.571C69.8822 14.7363 70.1715 14.9223 70.4195 15.129C70.6675 15.3357 70.8019 15.532 70.8225 15.718C70.8432 15.842 71.0705 15.8317 71.5045 15.687C71.6492 15.5217 71.8662 15.3977 72.1555 15.315C72.4449 15.2117 72.7135 15.16 72.9615 15.16C73.2095 15.1393 73.3439 15.2013 73.3645 15.346C73.2405 15.532 73.2612 15.6973 73.4265 15.842C73.4885 15.8213 73.4989 15.966 73.4575 16.276C73.4162 16.586 73.3439 16.9477 73.2405 17.361C73.1372 17.7537 73.0132 18.0637 72.8685 18.291C72.8685 18.291 72.8479 18.3427 72.8065 18.446C72.7859 18.5493 72.7755 18.601 72.7755 18.601C72.8169 18.7043 72.7962 18.8077 72.7135 18.911C72.6309 19.0143 72.5585 19.1073 72.4965 19.19C72.4345 19.2933 72.3519 19.5103 72.2485 19.841C72.1659 20.151 72.0729 20.5127 71.9695 20.926C71.8869 21.3187 71.8145 21.6803 71.7525 22.011C71.6905 22.321 71.6595 22.5277 71.6595 22.631C71.7009 22.7757 71.5149 22.8583 71.1015 22.879C70.7089 22.879 70.3369 22.817 69.9855 22.693C69.5309 22.5277 69.2415 22.3107 69.1175 22.042C69.0142 21.7733 69.0762 21.2463 69.3035 20.461C69.5929 19.5103 69.7582 18.8077 69.7995 18.353C69.8409 17.8983 69.7169 17.5573 69.4275 17.33C69.3242 17.144 69.0969 17.0303 68.7455 16.989C68.3942 16.927 68.1049 16.9683 67.8775 17.113C67.5675 17.237 67.1439 17.5263 66.6065 17.981C66.0692 18.415 65.5112 18.9317 64.9325 19.531C64.3539 20.1303 63.8372 20.7503 63.3825 21.391C62.4319 22.7137 61.7085 24.0363 61.2125 25.359C60.7165 26.6817 60.4375 27.9527 60.3755 29.172C60.3135 30.3913 60.4582 31.5383 60.8095 32.613C60.8509 32.6957 60.9749 32.8713 61.1815 33.14C61.3882 33.4087 61.5535 33.5843 61.6775 33.667C62.3182 33.8117 63.2379 33.822 64.4365 33.698C65.3252 33.5327 65.9762 33.2847 66.3895 32.954C66.8235 32.6233 67.2369 32.1687 67.6295 31.59C67.8569 31.2593 68.1049 31.125 68.3735 31.187C68.6422 31.2283 68.8799 31.3937 69.0865 31.683C69.2932 31.9517 69.4172 32.272 69.4585 32.644C69.4585 32.7473 69.3655 32.9643 69.1795 33.295C69.0142 33.605 68.8179 33.9047 68.5905 34.194C68.3839 34.4833 68.2185 34.6487 68.0945 34.69C68.0119 34.7107 67.9602 34.7313 67.9395 34.752C67.9395 34.7727 67.9499 34.8347 67.9705 34.938C67.9705 35.0207 67.8362 35.1447 67.5675 35.31C67.2989 35.4753 66.9579 35.6407 66.5445 35.806C66.1312 35.992 65.6869 36.147 65.2115 36.271C64.7362 36.4157 64.2919 36.519 63.8785 36.581ZM75.4171 34.752C74.9831 34.8347 74.6524 34.814 74.4251 34.69C74.2184 34.5453 74.0014 34.3697 73.7741 34.163C73.4434 33.9977 73.1437 33.7703 72.8751 33.481C72.6064 33.171 72.3997 32.8507 72.2551 32.52C72.1104 32.1893 72.0484 31.931 72.0691 31.745C72.1311 31.0217 72.2964 30.2363 72.5651 29.389C72.8544 28.5417 73.2161 27.715 73.6501 26.909C74.1047 26.103 74.6111 25.39 75.1691 24.77C75.7477 24.1293 76.3677 23.6643 77.0291 23.375C77.4424 23.2097 77.8867 23.1477 78.3621 23.189C78.8374 23.2303 79.1577 23.4267 79.3231 23.778C79.6331 24.3773 79.5607 24.7597 79.1061 24.925C79.0441 24.925 78.9717 24.956 78.8891 25.018C78.8064 25.0593 78.7651 25.1213 78.7651 25.204C78.8477 25.2453 79.0751 25.2557 79.4471 25.235C79.8191 25.1937 80.1911 25.1317 80.5631 25.049C80.9557 24.9457 81.2141 24.8423 81.3381 24.739C81.4621 24.677 81.5551 24.646 81.6171 24.646C81.6791 24.646 81.8341 24.6667 82.0821 24.708C82.4334 24.8113 82.6091 24.9353 82.6091 25.08C82.6091 25.1627 82.6401 25.297 82.7021 25.483C82.7641 25.6483 82.8364 25.731 82.9191 25.731C83.0637 25.7517 83.0947 25.8963 83.0121 26.165C82.9501 26.4337 82.7124 26.7127 82.2991 27.002C81.9064 27.25 81.6584 27.4153 81.5551 27.498C81.4724 27.56 81.4621 27.7047 81.5241 27.932C81.6894 28.3247 81.6791 28.8 81.4931 29.358C81.3071 29.916 80.9971 30.4947 80.5631 31.094C80.1291 31.6933 79.6124 32.2617 79.0131 32.799C78.4344 33.3157 77.8247 33.76 77.1841 34.132C76.5641 34.4833 75.9751 34.69 75.4171 34.752ZM75.5101 32.148C75.5927 32.148 75.7374 32.1067 75.9441 32.024C76.1507 31.9207 76.3161 31.838 76.4401 31.776C76.5227 31.6933 76.6261 31.6003 76.7501 31.497C76.8947 31.373 77.0084 31.3007 77.0911 31.28C77.1737 31.28 77.2254 31.249 77.2461 31.187C77.2667 31.1043 77.3391 30.9493 77.4631 30.722C77.5871 30.474 77.8351 30.1123 78.2071 29.637C78.6204 29.1823 78.8891 28.8207 79.0131 28.552C79.1371 28.2627 79.1474 27.9527 79.0441 27.622C79.0234 27.5393 78.9614 27.4877 78.8581 27.467C78.7754 27.4463 78.6617 27.3947 78.5171 27.312C78.3104 27.312 78.1657 27.3637 78.0831 27.467C78.0211 27.5497 77.8764 27.498 77.6491 27.312L77.1531 26.692L76.6261 27.219C76.2954 27.5497 75.9957 27.963 75.7271 28.459C75.4791 28.955 75.2827 29.4613 75.1381 29.978C74.9934 30.4947 74.9004 30.9493 74.8591 31.342C74.8384 31.652 74.8901 31.8587 75.0141 31.962C75.1381 32.0653 75.3034 32.1273 75.5101 32.148ZM93.5925 34.876C93.2825 34.876 92.9828 34.783 92.6935 34.597C92.4042 34.3903 92.1665 34.1113 91.9805 33.76C91.7945 33.388 91.7015 32.954 91.7015 32.458C91.7015 32.148 91.7532 31.714 91.8565 31.156C91.9805 30.5773 92.1562 29.854 92.3835 28.986C92.4248 28.6967 92.4558 28.5107 92.4765 28.428C92.5178 28.3453 92.5385 28.2627 92.5385 28.18C92.5385 28.1387 92.5282 28.1077 92.5075 28.087C92.5075 28.0457 92.4868 28.025 92.4455 28.025C92.2802 28.025 92.0528 28.1387 91.7635 28.366C91.4948 28.5727 91.1848 28.8207 90.8335 29.11C90.7715 29.1513 90.6992 29.203 90.6165 29.265C90.5545 29.327 90.4822 29.389 90.3995 29.451C90.3375 29.513 90.2652 29.575 90.1825 29.637C89.9758 29.761 89.6555 29.9987 89.2215 30.35C88.8082 30.7013 88.3742 31.0733 87.9195 31.466C87.4855 31.8587 87.1032 32.1893 86.7725 32.458C86.6072 32.582 86.4625 32.6853 86.3385 32.768C86.2352 32.8507 86.1628 32.892 86.1215 32.892C86.0802 32.892 85.9148 32.8403 85.6255 32.737C85.3568 32.613 85.0882 32.4477 84.8195 32.241C84.5715 32.0137 84.4475 31.7553 84.4475 31.466C84.4475 31.28 84.5198 30.908 84.6645 30.35C84.8298 29.792 85.0572 29.1307 85.3465 28.366C85.6358 27.6013 85.9665 26.8263 86.3385 26.041C86.4212 25.855 86.4832 25.607 86.5245 25.297C86.5658 24.987 86.6072 24.6873 86.6485 24.398C86.7105 24.088 86.8138 23.8607 86.9585 23.716C87.0205 23.6127 87.0928 23.5403 87.1755 23.499C87.2788 23.437 87.3822 23.406 87.4855 23.406C87.6922 23.406 87.8885 23.4577 88.0745 23.561C88.2605 23.6437 88.4362 23.7883 88.6015 23.995C88.9115 24.3257 89.0768 24.7183 89.0975 25.173C89.1388 25.607 89.1078 26.0307 89.0045 26.444C88.9012 26.8573 88.7875 27.1983 88.6635 27.467C88.5395 27.715 88.4775 27.8183 88.4775 27.777C88.5602 27.7357 88.6738 27.6323 88.8185 27.467C88.9838 27.3017 89.2628 27.1053 89.6555 26.878C90.1928 26.4647 90.6062 26.1753 90.8955 26.01C91.1848 25.824 91.4018 25.6897 91.5465 25.607C91.7118 25.5243 91.8565 25.4313 91.9805 25.328C92.0838 25.2453 92.1562 25.1937 92.1975 25.173C92.2595 25.1523 92.2905 25.142 92.2905 25.142C92.3525 25.142 92.4558 25.1007 92.6005 25.018C92.7658 24.9353 92.9208 24.894 93.0655 24.894C93.2722 24.894 93.4892 24.9457 93.7165 25.049C93.9438 25.1317 94.1402 25.2557 94.3055 25.421C94.4708 25.5657 94.5535 25.7207 94.5535 25.886C94.5535 25.948 94.5742 25.9997 94.6155 26.041C94.6568 26.0823 94.6982 26.134 94.7395 26.196C94.8428 26.32 94.9565 26.4957 95.0805 26.723C95.2252 26.9297 95.2975 27.2707 95.2975 27.746C95.2975 28.0767 95.2252 28.5623 95.0805 29.203C94.9358 29.8437 94.7808 30.474 94.6155 31.094C94.4502 31.7347 94.3675 32.2513 94.3675 32.644C94.3882 33.016 94.4295 33.3053 94.4915 33.512C94.5535 33.698 94.5845 33.853 94.5845 33.977C94.5845 34.1423 94.5018 34.3387 94.3365 34.566C94.1712 34.7727 93.9232 34.876 93.5925 34.876ZM99.544 33.946C99.4614 33.946 99.265 33.8737 98.955 33.729C98.645 33.5637 98.4487 33.4397 98.366 33.357C98.2214 33.1917 98.1284 33.016 98.087 32.83C98.0457 32.6233 98.025 32.2307 98.025 31.652C98.025 30.9907 98.1594 30.2467 98.428 29.42C98.6967 28.5727 99.1514 27.4463 99.792 26.041L101.063 23.468C101.166 23.3233 101.259 23.1993 101.342 23.096C101.425 22.972 101.518 22.8583 101.621 22.755C101.662 22.755 101.714 22.755 101.776 22.755C101.859 22.755 101.921 22.7653 101.962 22.786C102.148 22.8067 102.437 22.9203 102.83 23.127C103.243 23.3337 103.491 23.6437 103.574 24.057C103.574 24.3257 103.533 24.646 103.45 25.018C103.367 25.3693 103.119 25.8343 102.706 26.413C102.541 26.6197 102.375 26.9193 102.21 27.312C102.065 27.7047 101.931 28.0767 101.807 28.428C101.786 28.4693 101.724 28.5727 101.621 28.738C101.538 28.8827 101.456 29.0377 101.373 29.203C101.29 29.3477 101.249 29.4407 101.249 29.482L101.125 29.761L102.458 28.459C103.388 27.529 104.173 26.8677 104.814 26.475C105.455 26.0823 105.992 25.917 106.426 25.979C106.881 26.041 107.242 26.2993 107.511 26.754C107.656 26.9607 107.759 27.188 107.821 27.436C107.883 27.6633 107.924 27.932 107.945 28.242C107.966 28.552 107.955 28.9447 107.914 29.42V31.187C108.307 31.0837 108.606 31.001 108.813 30.939C109.02 30.8563 109.226 30.784 109.433 30.722C109.598 30.6807 109.764 30.6393 109.929 30.598C110.115 30.5567 110.342 30.5257 110.611 30.505C110.59 30.7737 110.477 31.1043 110.27 31.497C110.063 31.8897 109.805 32.2823 109.495 32.675C109.206 33.0677 108.885 33.3983 108.534 33.667C108.203 33.9357 107.893 34.07 107.604 34.07C107.335 34.07 107.025 33.9873 106.674 33.822C106.323 33.636 106.023 33.2847 105.775 32.768C105.692 32.4993 105.61 32.1893 105.527 31.838C105.444 31.4867 105.403 31.1147 105.403 30.722V29.358C105.403 29.234 105.393 29.1513 105.372 29.11C105.372 29.048 105.362 29.017 105.341 29.017C105.258 29.017 104.99 29.234 104.535 29.668C104.101 30.102 103.657 30.5567 103.202 31.032C102.251 32.024 101.456 32.7577 100.815 33.233C100.195 33.7083 99.7714 33.946 99.544 33.946ZM114.238 34.721C113.432 34.3903 112.874 33.853 112.564 33.109C112.254 32.365 112.171 31.373 112.316 30.133C112.357 29.4923 112.336 29.0687 112.254 28.862C112.171 28.6347 112.016 28.4177 111.789 28.211C111.727 28.1283 111.582 27.994 111.355 27.808C111.127 27.6013 111.024 27.4463 111.045 27.343C111.024 27.1983 111.055 27.0227 111.138 26.816C111.22 26.5887 111.293 26.4647 111.355 26.444C111.499 26.382 111.644 26.3097 111.789 26.227C111.954 26.1443 112.078 26.1237 112.161 26.165C112.243 26.165 112.367 26.2167 112.533 26.32C112.719 26.4233 112.812 26.5163 112.812 26.599C112.894 26.7437 113.018 26.6817 113.184 26.413C113.37 26.1443 113.566 25.8033 113.773 25.39C113.979 25.0593 114.238 24.7493 114.548 24.46C114.858 24.1707 115.168 23.9123 115.478 23.685C115.808 23.437 116.087 23.251 116.315 23.127C116.418 23.0857 116.614 23.0237 116.904 22.941C117.214 22.8583 117.534 22.7963 117.865 22.755C118.195 22.693 118.443 22.6723 118.609 22.693C118.981 22.7137 119.373 22.8687 119.787 23.158C120.2 23.4473 120.52 23.716 120.748 23.964C121.016 24.15 121.192 24.4393 121.275 24.832C121.378 25.204 121.419 25.5967 121.399 26.01C121.378 26.4233 121.295 26.7747 121.151 27.064C121.089 27.2707 120.872 27.56 120.5 27.932C120.128 28.304 119.714 28.6657 119.26 29.017C118.826 29.3477 118.454 29.575 118.144 29.699C117.875 29.761 117.555 29.8127 117.183 29.854C116.811 29.8747 116.459 29.8747 116.129 29.854C115.819 29.8127 115.602 29.761 115.478 29.699C115.333 29.6163 115.209 29.6473 115.106 29.792C115.023 29.916 114.951 30.2673 114.889 30.846C114.868 31.0733 114.868 31.2697 114.889 31.435C114.93 31.6003 114.971 31.7243 115.013 31.807C115.157 32.055 115.302 32.241 115.447 32.365C115.591 32.4683 115.86 32.4993 116.253 32.458C116.645 32.4167 117.038 32.179 117.431 31.745C117.844 31.2903 118.216 30.9287 118.547 30.66C118.629 30.5153 118.805 30.4223 119.074 30.381C119.363 30.319 119.704 30.3397 120.097 30.443C120.324 30.5877 120.427 30.815 120.407 31.125C120.407 31.435 120.241 31.8897 119.911 32.489C119.849 32.6337 119.673 32.8507 119.384 33.14C119.115 33.4087 118.815 33.6877 118.485 33.977C118.175 34.2457 117.916 34.442 117.71 34.566C117.09 34.8967 116.48 35.0517 115.881 35.031C115.281 35.0103 114.734 34.907 114.238 34.721ZM116.532 27.746C116.842 27.6633 117.1 27.5807 117.307 27.498C117.534 27.4153 117.751 27.281 117.958 27.095C118.164 26.909 118.402 26.63 118.671 26.258C118.753 26.0307 118.795 25.8343 118.795 25.669C118.815 25.5037 118.805 25.4003 118.764 25.359C118.598 25.1937 118.412 25.142 118.206 25.204C118.02 25.2453 117.813 25.3487 117.586 25.514C117.441 25.576 117.234 25.7103 116.966 25.917C116.718 26.103 116.47 26.32 116.222 26.568C115.994 26.7953 115.808 27.0123 115.664 27.219C115.54 27.405 115.519 27.5187 115.602 27.56C115.56 27.6427 115.674 27.6943 115.943 27.715C116.232 27.7357 116.428 27.746 116.532 27.746ZM126.265 35.124C125.666 35.2273 125.066 35.1757 124.467 34.969C123.888 34.7623 123.403 34.4317 123.01 33.977C122.638 33.5017 122.452 32.9333 122.452 32.272C122.39 31.652 122.442 30.9183 122.607 30.071C122.793 29.203 123.062 28.335 123.413 27.467C123.785 26.599 124.209 25.8653 124.684 25.266C125.097 24.77 125.511 24.3153 125.924 23.902C126.337 23.4887 126.709 23.2097 127.04 23.065C127.329 22.941 127.681 22.848 128.094 22.786C128.528 22.7033 128.828 22.662 128.993 22.662C129.324 22.7447 129.685 22.879 130.078 23.065C130.491 23.251 130.698 23.468 130.698 23.716C130.698 23.716 130.719 23.747 130.76 23.809C130.822 23.8503 130.853 23.871 130.853 23.871C130.977 23.871 131.111 24.026 131.256 24.336C131.421 24.6253 131.545 24.9663 131.628 25.359C131.711 25.731 131.69 26.0307 131.566 26.258C131.483 26.6507 131.318 27.033 131.07 27.405C130.843 27.777 130.646 27.963 130.481 27.963C130.398 27.963 130.316 27.9733 130.233 27.994C130.171 27.994 130.14 28.0457 130.14 28.149C130.14 28.2523 130.026 28.304 129.799 28.304C129.592 28.304 129.375 28.2627 129.148 28.18C128.921 28.0973 128.776 27.9733 128.714 27.808C128.714 27.7047 128.735 27.5703 128.776 27.405C128.817 27.2397 128.879 26.9607 128.962 26.568C129.086 25.9893 129.096 25.607 128.993 25.421C128.89 25.2143 128.631 25.1937 128.218 25.359C127.701 25.6483 127.278 25.9893 126.947 26.382C126.616 26.754 126.317 27.281 126.048 27.963C125.8 28.645 125.521 29.5957 125.211 30.815C125.087 31.2903 125.066 31.6623 125.149 31.931C125.252 32.1997 125.335 32.3443 125.397 32.365C125.686 32.4477 125.996 32.4683 126.327 32.427C126.678 32.365 126.968 32.272 127.195 32.148C127.526 31.9827 127.815 31.807 128.063 31.621C128.332 31.4143 128.621 31.1973 128.931 30.97C129.034 30.908 129.127 30.7943 129.21 30.629C129.293 30.443 129.417 30.3087 129.582 30.226C129.747 29.978 129.954 29.854 130.202 29.854C130.471 29.8333 130.729 29.823 130.977 29.823C131.142 29.8643 131.318 29.9677 131.504 30.133C131.69 30.2983 131.824 30.4637 131.907 30.629C132.01 30.7737 132 30.877 131.876 30.939C131.793 30.939 131.742 30.97 131.721 31.032C131.721 31.0733 131.721 31.094 131.721 31.094C131.762 31.1767 131.669 31.3627 131.442 31.652C131.235 31.9413 130.967 32.2513 130.636 32.582C130.305 32.9127 129.985 33.202 129.675 33.45C129.386 33.6773 129.179 33.791 129.055 33.791C128.848 33.791 128.745 33.853 128.745 33.977C128.745 34.0183 128.59 34.1217 128.28 34.287C127.991 34.4523 127.65 34.6177 127.257 34.783C126.885 34.9483 126.554 35.062 126.265 35.124ZM137.836 35.186C137.547 35.1033 137.257 34.9587 136.968 34.752C136.679 34.5453 136.379 34.3077 136.069 34.039C135.821 33.7083 135.645 33.4087 135.542 33.14C135.439 32.8507 135.377 32.52 135.356 32.148C135.356 31.7553 135.356 31.2593 135.356 30.66C135.356 30.412 135.397 30.0607 135.48 29.606C135.583 29.1513 135.687 28.676 135.79 28.18C135.914 27.684 136.028 27.25 136.131 26.878C136.234 26.4853 136.296 26.227 136.317 26.103C136.379 25.8343 136.276 25.6793 136.007 25.638C135.738 25.5967 135.439 25.5863 135.108 25.607C134.798 25.607 134.591 25.576 134.488 25.514C134.405 25.4933 134.364 25.39 134.364 25.204C134.364 24.9973 134.364 24.894 134.364 24.894C134.364 24.8113 134.323 24.7597 134.24 24.739C134.157 24.6977 134.085 24.6253 134.023 24.522C133.982 24.4393 134.033 24.2843 134.178 24.057C134.323 23.8297 134.509 23.6953 134.736 23.654C134.922 23.6127 135.201 23.5817 135.573 23.561C135.945 23.5197 136.317 23.4473 136.689 23.344C137.082 23.22 137.381 23.034 137.588 22.786C137.774 22.3313 137.981 21.8457 138.208 21.329C138.435 20.7917 138.652 20.3267 138.859 19.934C139.066 19.5207 139.21 19.2623 139.293 19.159C139.644 18.973 140.006 18.9007 140.378 18.942C140.75 18.9627 141.039 19.1383 141.246 19.469C141.349 19.6137 141.432 19.717 141.494 19.779C141.577 19.841 141.608 19.934 141.587 20.058C141.587 20.182 141.504 20.4093 141.339 20.74C141.194 21.05 140.946 21.5357 140.595 22.197C140.492 22.4037 140.399 22.5897 140.316 22.755C140.233 22.8997 140.192 22.972 140.192 22.972C140.275 22.9927 140.399 23.003 140.564 23.003C140.729 23.003 140.936 22.9927 141.184 22.972C141.411 22.9307 141.659 22.8997 141.928 22.879C142.197 22.8377 142.434 22.8377 142.641 22.879C143.116 22.879 143.468 23.0133 143.695 23.282C143.922 23.5507 144.046 23.8917 144.067 24.305C144.108 24.5323 144.026 24.7287 143.819 24.894C143.612 25.0593 143.23 25.142 142.672 25.142C142.486 25.142 142.217 25.1523 141.866 25.173C141.515 25.1937 141.153 25.2143 140.781 25.235C140.409 25.2557 140.089 25.2867 139.82 25.328C139.572 25.3487 139.448 25.3797 139.448 25.421C139.386 25.4623 139.283 25.6277 139.138 25.917C139.014 26.1857 138.88 26.5163 138.735 26.909C138.611 27.3017 138.497 27.6737 138.394 28.025C138.249 28.7277 138.146 29.4097 138.084 30.071C138.022 30.7323 138.012 31.311 138.053 31.807C138.115 32.2823 138.239 32.6233 138.425 32.83C138.611 33.016 138.89 33.016 139.262 32.83C139.655 32.6233 140.016 32.3857 140.347 32.117C140.719 31.807 141.039 31.714 141.308 31.838C141.577 31.9413 141.742 32.1687 141.804 32.52C141.887 32.8507 141.794 33.2123 141.525 33.605C141.277 33.9977 140.926 34.3283 140.471 34.597C140.016 34.8657 139.551 35.0517 139.076 35.155C138.601 35.279 138.187 35.2893 137.836 35.186Z" fill="#101935"/>
</svg>
