<svg width="100" height="40" viewBox="0 0 100 40" fill="none" xmlns="http://www.w3.org/2000/svg">
<path d="M20.972 34.2494C20.63 34.3034 20.216 34.2944 19.73 34.2224C19.244 34.1684 18.722 34.0694 18.164 33.9254C17.876 33.8354 17.669 33.7274 17.543 33.6014C17.435 33.4754 17.246 33.2414 16.976 32.8994C16.796 32.6294 16.679 32.3234 16.625 31.9814C16.589 31.6394 16.634 31.3334 16.76 31.0634C16.904 30.7934 17.138 30.6314 17.462 30.5774C17.606 30.5414 17.777 30.5774 17.975 30.6854C18.191 30.7754 18.416 30.8924 18.65 31.0364C19.028 31.2524 19.433 31.4684 19.865 31.6844C20.297 31.9184 20.693 32.0084 21.053 31.9544C21.305 31.9004 21.602 31.8644 21.944 31.8464C22.304 31.8464 22.646 31.8194 22.97 31.7654C23.312 31.7114 23.582 31.6124 23.78 31.4684C24.734 30.8204 25.445 30.3074 25.913 29.9294C26.381 29.5334 26.615 29.3354 26.615 29.3354C26.651 29.2634 26.714 29.2094 26.804 29.1734C26.912 29.1194 27.038 29.0654 27.182 29.0114C27.29 28.9034 27.461 28.7324 27.695 28.4984C27.929 28.2464 28.154 28.0034 28.37 27.7694C28.604 27.5354 28.748 27.4004 28.802 27.3644C28.838 27.2024 28.874 27.0764 28.91 26.9864C28.946 26.8784 28.964 26.7704 28.964 26.6624C29.108 26.5184 29.297 26.2214 29.531 25.7714C29.783 25.3034 30.035 24.7904 30.287 24.2324C30.539 23.6564 30.719 23.1344 30.827 22.6664C31.061 21.6764 31.142 20.7764 31.07 19.9664C30.998 19.1564 30.791 18.4274 30.449 17.7794C30.107 17.1314 29.648 16.5644 29.072 16.0784C28.874 15.9164 28.604 15.7454 28.262 15.5654C27.92 15.3674 27.569 15.1874 27.209 15.0254C26.849 14.8454 26.525 14.7104 26.237 14.6204C25.967 14.5304 25.805 14.4944 25.751 14.5124C25.679 14.5304 25.535 14.8094 25.319 15.3494C25.121 15.8714 24.869 16.5464 24.563 17.3744C24.275 18.2024 23.96 19.0934 23.618 20.0474C23.294 20.9834 22.979 21.8744 22.673 22.7204C22.583 23.0624 22.466 23.4224 22.322 23.8004C22.196 24.1784 22.088 24.5114 21.998 24.7994C21.908 25.0694 21.863 25.2494 21.863 25.3394C21.665 25.6454 21.458 26.1134 21.242 26.7434C21.026 27.3734 20.846 28.2734 20.702 29.4434C20.54 30.0554 20.423 30.5684 20.351 30.9824C20.279 31.3784 20.207 31.5674 20.135 31.5494C20.135 31.5494 20.126 31.6304 20.108 31.7924C20.09 31.9724 20.054 32.0894 20 32.1434C20 32.2514 19.892 32.3234 19.676 32.3594C19.46 32.3954 19.208 32.3504 18.92 32.2244C18.632 32.0984 18.362 31.8554 18.11 31.4954C18.056 31.2974 18.011 31.0094 17.975 30.6314C17.957 30.2354 18.02 29.7764 18.164 29.2544C18.254 28.9124 18.38 28.4714 18.542 27.9314C18.704 27.3914 18.884 26.8334 19.082 26.2574C19.28 25.6814 19.46 25.1504 19.622 24.6644C19.802 24.1784 19.928 23.8184 20 23.5844C20.126 23.2784 20.306 22.7024 20.54 21.8564C20.684 21.3884 20.828 20.9204 20.972 20.4524C21.134 19.9844 21.287 19.5704 21.431 19.2104C21.575 18.8324 21.674 18.5894 21.728 18.4814C21.818 18.2474 21.926 17.8694 22.052 17.3474C22.196 16.8074 22.412 16.1954 22.7 15.5114L22.889 14.6204L22.592 14.4854C22.376 14.5574 22.205 14.5844 22.079 14.5664C21.971 14.5304 21.899 14.5034 21.863 14.4854C21.755 14.5214 21.611 14.4944 21.431 14.4044C21.269 14.2964 21.116 14.1614 20.972 13.9994C20.846 13.8374 20.765 13.7024 20.729 13.5944C20.693 13.5224 20.666 13.4324 20.648 13.3244C20.648 13.1984 20.648 13.1354 20.648 13.1354C20.666 13.0274 20.819 12.9194 21.107 12.8114C21.395 12.6854 21.764 12.5684 22.214 12.4604C22.682 12.3524 23.177 12.2714 23.699 12.2174C24.221 12.1634 24.707 12.1544 25.157 12.1904C25.625 12.2264 26.201 12.3344 26.885 12.5144C27.569 12.6944 28.154 12.8744 28.64 13.0544C29.216 13.2704 29.837 13.6394 30.503 14.1614C31.169 14.6834 31.772 15.3044 32.312 16.0244C32.87 16.7444 33.239 17.5004 33.419 18.2924C33.473 18.5084 33.527 18.8144 33.581 19.2104C33.635 19.6064 33.662 19.9934 33.662 20.3714C33.68 20.7314 33.644 20.9654 33.554 21.0734C33.518 21.1454 33.491 21.2354 33.473 21.3434C33.473 21.4334 33.509 21.4964 33.581 21.5324C33.563 21.5864 33.5 21.7934 33.392 22.1534C33.284 22.4954 33.185 22.7924 33.095 23.0444C33.059 23.5124 32.933 24.0524 32.717 24.6644C32.519 25.2764 32.294 25.8614 32.042 26.4194C31.808 26.9594 31.601 27.3824 31.421 27.6884C31.349 27.6884 31.277 27.7064 31.205 27.7424C31.151 27.7604 31.16 27.7784 31.232 27.7964C31.232 27.8864 31.133 28.0574 30.935 28.3094C30.863 28.3634 30.746 28.4984 30.584 28.7144C30.44 28.9124 30.323 29.0474 30.233 29.1194C30.215 29.2454 30.161 29.3534 30.071 29.4434C29.981 29.5154 29.9 29.5514 29.828 29.5514C29.828 29.5514 29.81 29.5514 29.774 29.5514C29.756 29.5514 29.747 29.5874 29.747 29.6594C29.603 29.8754 29.36 30.1544 29.018 30.4964C28.676 30.8384 28.289 31.1894 27.857 31.5494C27.425 31.9094 26.993 32.2424 26.561 32.5484C26.129 32.8544 25.733 33.0794 25.373 33.2234C25.193 33.3494 25.004 33.4484 24.806 33.5204C24.608 33.6104 24.419 33.7004 24.239 33.7904C24.149 33.8624 23.888 33.9254 23.456 33.9794C23.024 34.0334 22.565 34.0784 22.079 34.1144C21.611 34.1504 21.242 34.1954 20.972 34.2494ZM39.2694 30.8474C38.7294 31.1534 38.1534 31.3334 37.5414 31.3874C36.9474 31.4234 36.3894 31.3424 35.8674 31.1444C35.3454 30.9284 34.9224 30.6134 34.5984 30.1994C34.4184 29.9654 34.2474 29.5964 34.0854 29.0924C33.9234 28.5704 33.8964 27.8684 34.0044 26.9864C34.1124 26.1584 34.3644 25.3214 34.7604 24.4754C35.1744 23.6294 35.6784 22.8824 36.2724 22.2344C36.8664 21.5864 37.5144 21.1454 38.2164 20.9114C38.4684 20.8214 38.7204 20.7584 38.9724 20.7224C39.2424 20.6684 39.5934 20.6594 40.0254 20.6954C40.4394 20.7494 40.8084 20.8574 41.1324 21.0194C41.4564 21.1634 41.6904 21.3254 41.8344 21.5054C42.1224 21.7934 42.3114 22.0724 42.4014 22.3424C42.4914 22.6124 42.5274 22.8734 42.5094 23.1254C42.4194 23.7014 42.1584 24.3224 41.7264 24.9884C41.3124 25.6544 40.7274 26.1494 39.9714 26.4734C39.6654 26.5994 39.3054 26.6804 38.8914 26.7164C38.4774 26.7524 37.9104 26.6984 37.1904 26.5544C36.7584 26.4644 36.4704 26.5094 36.3264 26.6894C36.2004 26.8694 36.1464 27.2204 36.1644 27.7424C36.2004 28.0664 36.2724 28.3544 36.3804 28.6064C36.5064 28.8404 36.7314 29.0024 37.0554 29.0924C37.4694 29.1644 37.7664 29.1734 37.9464 29.1194C38.1264 29.0474 38.3514 28.9484 38.6214 28.8224C38.7654 28.7324 38.9004 28.6334 39.0264 28.5254C39.1704 28.4174 39.3054 28.3094 39.4314 28.2014C39.5754 28.0934 39.6924 28.0124 39.7824 27.9584C39.8724 27.8864 39.9624 27.8414 40.0524 27.8234C40.1424 27.8054 40.2324 27.7964 40.3224 27.7964C40.5204 27.8144 40.7094 27.9224 40.8894 28.1204C41.0694 28.3184 41.1864 28.5074 41.2404 28.6874C41.2404 28.8314 41.1504 29.0384 40.9704 29.3084C40.7904 29.5604 40.5474 29.8304 40.2414 30.1184C39.9534 30.3884 39.6294 30.6314 39.2694 30.8474ZM38.9184 24.8264C39.0444 24.7724 39.2244 24.6464 39.4584 24.4484C39.7104 24.2504 39.9354 24.0434 40.1334 23.8274C40.3314 23.5934 40.4304 23.4134 40.4304 23.2874C40.4304 23.0894 40.2954 22.9184 40.0254 22.7744C39.7734 22.6304 39.4404 22.6034 39.0264 22.6934C38.8824 22.7294 38.7114 22.8284 38.5134 22.9904C38.3154 23.1524 38.1174 23.3414 37.9194 23.5574C37.7214 23.7554 37.5504 23.9534 37.4064 24.1514C37.2624 24.3314 37.1634 24.4754 37.1094 24.5834C37.1814 24.6734 37.3254 24.7454 37.5414 24.7994C37.7574 24.8534 37.9914 24.8804 38.2434 24.8804C38.5134 24.8804 38.7384 24.8624 38.9184 24.8264ZM45.209 29.9564C45.083 29.8484 44.912 29.5244 44.696 28.9844C44.498 28.4444 44.3 27.8144 44.102 27.0944C43.922 26.3744 43.778 25.7084 43.67 25.0964C43.598 24.7364 43.517 24.4304 43.427 24.1784C43.355 23.9264 43.292 23.7194 43.238 23.5574C43.148 23.2334 43.175 22.8914 43.319 22.5314C43.481 22.1714 43.67 21.9284 43.886 21.8024C43.976 21.7484 44.138 21.7124 44.372 21.6944C44.624 21.6584 44.786 21.6494 44.858 21.6674C45.074 21.7394 45.272 22.0724 45.452 22.6664C45.632 23.2424 45.794 24.0074 45.938 24.9614C46.01 25.5194 46.064 25.9334 46.1 26.2034C46.154 26.4554 46.181 26.6174 46.181 26.6894C46.253 26.8334 46.298 27.0134 46.316 27.2294C46.352 27.4274 46.442 27.4544 46.586 27.3104C46.658 27.2384 46.766 27.1124 46.91 26.9324C47.072 26.7524 47.261 26.5184 47.477 26.2304C47.855 25.7264 48.152 25.3124 48.368 24.9884C48.602 24.6464 48.863 24.2954 49.151 23.9354C49.277 23.7554 49.448 23.5574 49.664 23.3414C49.88 23.1254 50.096 22.9274 50.312 22.7474C50.528 22.5494 50.708 22.4324 50.852 22.3964C51.284 22.3244 51.545 22.4864 51.635 22.8824C51.743 23.2604 51.617 23.7014 51.257 24.2054C51.113 24.4214 50.996 24.6284 50.906 24.8264C50.834 25.0064 50.762 25.1324 50.69 25.2044C50.546 25.4924 50.321 25.8614 50.015 26.3114C49.709 26.7434 49.412 27.1484 49.124 27.5264C48.836 27.8864 48.638 28.1204 48.53 28.2284C48.458 28.3004 48.296 28.4354 48.044 28.6334C47.81 28.8314 47.585 29.0834 47.369 29.3894C46.937 29.8034 46.523 30.0554 46.127 30.1454C45.731 30.2354 45.425 30.1724 45.209 29.9564ZM57.7925 32.7644C57.5045 32.7824 57.0905 32.7644 56.5505 32.7104C56.0285 32.6564 55.4705 32.5214 54.8765 32.3054C54.3005 32.0894 53.7785 31.7744 53.3105 31.3604C52.8605 30.9284 52.5635 30.3524 52.4195 29.6324C52.2035 28.6244 52.1585 27.5264 52.2845 26.3384C52.4105 25.1504 52.6265 23.9804 52.9325 22.8284C53.0225 22.5044 53.1935 22.0904 53.4455 21.5864C53.6975 21.0644 53.9945 20.5064 54.3365 19.9124C54.6965 19.3184 55.0655 18.7424 55.4435 18.1844C55.8215 17.6084 56.1725 17.1134 56.4965 16.6994C56.7305 16.4294 57.0275 16.1234 57.3875 15.7814C57.7655 15.4214 58.1525 15.0794 58.5485 14.7554C58.9625 14.4134 59.3315 14.1254 59.6555 13.8914C59.9975 13.6394 60.2405 13.4864 60.3845 13.4324C60.6185 13.3244 60.8525 13.2614 61.0865 13.2434C61.3205 13.2074 61.5995 13.2344 61.9235 13.3244C62.1755 13.3424 62.4455 13.4324 62.7335 13.5944C63.0215 13.7384 63.2735 13.9004 63.4895 14.0804C63.7055 14.2604 63.8225 14.4314 63.8405 14.5934C63.8585 14.7014 64.0565 14.6924 64.4345 14.5664C64.5605 14.4224 64.7495 14.3144 65.0015 14.2424C65.2535 14.1524 65.4875 14.1074 65.7035 14.1074C65.9195 14.0894 66.0365 14.1434 66.0545 14.2694C65.9465 14.4314 65.9645 14.5754 66.1085 14.7014C66.1625 14.6834 66.1715 14.8094 66.1355 15.0794C66.0995 15.3494 66.0365 15.6644 65.9465 16.0244C65.8565 16.3664 65.7485 16.6364 65.6225 16.8344C65.6225 16.8344 65.6045 16.8794 65.5685 16.9694C65.5505 17.0594 65.5415 17.1044 65.5415 17.1044C65.5775 17.1944 65.5595 17.2844 65.4875 17.3744C65.4155 17.4644 65.3525 17.5454 65.2985 17.6174C65.2445 17.7074 65.1725 17.8964 65.0825 18.1844C65.0105 18.4544 64.9295 18.7694 64.8395 19.1294C64.7675 19.4714 64.7045 19.7864 64.6505 20.0744C64.5965 20.3444 64.5695 20.5244 64.5695 20.6144C64.6055 20.7404 64.4435 20.8124 64.0835 20.8304C63.7415 20.8304 63.4175 20.7764 63.1115 20.6684C62.7155 20.5244 62.4635 20.3354 62.3555 20.1014C62.2655 19.8674 62.3195 19.4084 62.5175 18.7244C62.7695 17.8964 62.9135 17.2844 62.9495 16.8884C62.9855 16.4924 62.8775 16.1954 62.6255 15.9974C62.5355 15.8354 62.3375 15.7364 62.0315 15.7004C61.7255 15.6464 61.4735 15.6824 61.2755 15.8084C61.0055 15.9164 60.6365 16.1684 60.1685 16.5644C59.7005 16.9424 59.2145 17.3924 58.7105 17.9144C58.2065 18.4364 57.7565 18.9764 57.3605 19.5344C56.5325 20.6864 55.9025 21.8384 55.4705 22.9904C55.0385 24.1424 54.7955 25.2494 54.7415 26.3114C54.6875 27.3734 54.8135 28.3724 55.1195 29.3084C55.1555 29.3804 55.2635 29.5334 55.4435 29.7674C55.6235 30.0014 55.7675 30.1544 55.8755 30.2264C56.4335 30.3524 57.2345 30.3614 58.2785 30.2534C59.0525 30.1094 59.6195 29.8934 59.9795 29.6054C60.3575 29.3174 60.7175 28.9214 61.0595 28.4174C61.2575 28.1294 61.4735 28.0124 61.7075 28.0664C61.9415 28.1024 62.1485 28.2464 62.3285 28.4984C62.5085 28.7324 62.6165 29.0114 62.6525 29.3354C62.6525 29.4254 62.5715 29.6144 62.4095 29.9024C62.2655 30.1724 62.0945 30.4334 61.8965 30.6854C61.7165 30.9374 61.5725 31.0814 61.4645 31.1174C61.3925 31.1354 61.3475 31.1534 61.3295 31.1714C61.3295 31.1894 61.3385 31.2434 61.3565 31.3334C61.3565 31.4054 61.2395 31.5134 61.0055 31.6574C60.7715 31.8014 60.4745 31.9454 60.1145 32.0894C59.7545 32.2514 59.3675 32.3864 58.9535 32.4944C58.5395 32.6204 58.1525 32.7104 57.7925 32.7644ZM67.8421 31.1714C67.4641 31.2434 67.1761 31.2254 66.9781 31.1174C66.7981 30.9914 66.6091 30.8384 66.4111 30.6584C66.1231 30.5144 65.8621 30.3164 65.6281 30.0644C65.3941 29.7944 65.2141 29.5154 65.0881 29.2274C64.9621 28.9394 64.9081 28.7144 64.9261 28.5524C64.9801 27.9224 65.1241 27.2384 65.3581 26.5004C65.6101 25.7624 65.9251 25.0424 66.3031 24.3404C66.6991 23.6384 67.1401 23.0174 67.6261 22.4774C68.1301 21.9194 68.6701 21.5144 69.2461 21.2624C69.6061 21.1184 69.9931 21.0644 70.4071 21.1004C70.8211 21.1364 71.1001 21.3074 71.2441 21.6134C71.5141 22.1354 71.4511 22.4684 71.0551 22.6124C71.0011 22.6124 70.9381 22.6394 70.8661 22.6934C70.7941 22.7294 70.7581 22.7834 70.7581 22.8554C70.8301 22.8914 71.0281 22.9004 71.3521 22.8824C71.6761 22.8464 72.0001 22.7924 72.3241 22.7204C72.6661 22.6304 72.8911 22.5404 72.9991 22.4504C73.1071 22.3964 73.1881 22.3694 73.2421 22.3694C73.2961 22.3694 73.4311 22.3874 73.6471 22.4234C73.9531 22.5134 74.1061 22.6214 74.1061 22.7474C74.1061 22.8194 74.1331 22.9364 74.1871 23.0984C74.2411 23.2424 74.3041 23.3144 74.3761 23.3144C74.5021 23.3324 74.5291 23.4584 74.4571 23.6924C74.4031 23.9264 74.1961 24.1694 73.8361 24.4214C73.4941 24.6374 73.2781 24.7814 73.1881 24.8534C73.1161 24.9074 73.1071 25.0334 73.1611 25.2314C73.3051 25.5734 73.2961 25.9874 73.1341 26.4734C72.9721 26.9594 72.7021 27.4634 72.3241 27.9854C71.9461 28.5074 71.4961 29.0024 70.9741 29.4704C70.4701 29.9204 69.9391 30.3074 69.3811 30.6314C68.8411 30.9374 68.3281 31.1174 67.8421 31.1714ZM67.9231 28.9034C67.9951 28.9034 68.1211 28.8674 68.3011 28.7954C68.4811 28.7054 68.6251 28.6334 68.7331 28.5794C68.8051 28.5074 68.8951 28.4264 69.0031 28.3364C69.1291 28.2284 69.2281 28.1654 69.3001 28.1474C69.3721 28.1474 69.4171 28.1204 69.4351 28.0664C69.4531 27.9944 69.5161 27.8594 69.6241 27.6614C69.7321 27.4454 69.9481 27.1304 70.2721 26.7164C70.6321 26.3204 70.8661 26.0054 70.9741 25.7714C71.0821 25.5194 71.0911 25.2494 71.0011 24.9614C70.9831 24.8894 70.9291 24.8444 70.8391 24.8264C70.7671 24.8084 70.6681 24.7634 70.5421 24.6914C70.3621 24.6914 70.2361 24.7364 70.1641 24.8264C70.1101 24.8984 69.9841 24.8534 69.7861 24.6914L69.3541 24.1514L68.8951 24.6104C68.6071 24.8984 68.3461 25.2584 68.1121 25.6904C67.8961 26.1224 67.7251 26.5634 67.5991 27.0134C67.4731 27.4634 67.3921 27.8594 67.3561 28.2014C67.3381 28.4714 67.3831 28.6514 67.4911 28.7414C67.5991 28.8314 67.7431 28.8854 67.9231 28.9034ZM83.6724 31.2794C83.4024 31.2794 83.1414 31.1984 82.8894 31.0364C82.6374 30.8564 82.4304 30.6134 82.2684 30.3074C82.1064 29.9834 82.0254 29.6054 82.0254 29.1734C82.0254 28.9034 82.0704 28.5254 82.1604 28.0394C82.2684 27.5354 82.4214 26.9054 82.6194 26.1494C82.6554 25.8974 82.6824 25.7354 82.7004 25.6634C82.7364 25.5914 82.7544 25.5194 82.7544 25.4474C82.7544 25.4114 82.7454 25.3844 82.7274 25.3664C82.7274 25.3304 82.7094 25.3124 82.6734 25.3124C82.5294 25.3124 82.3314 25.4114 82.0794 25.6094C81.8454 25.7894 81.5754 26.0054 81.2694 26.2574C81.2154 26.2934 81.1524 26.3384 81.0804 26.3924C81.0264 26.4464 80.9634 26.5004 80.8914 26.5544C80.8374 26.6084 80.7744 26.6624 80.7024 26.7164C80.5224 26.8244 80.2434 27.0314 79.8654 27.3374C79.5054 27.6434 79.1274 27.9674 78.7314 28.3094C78.3534 28.6514 78.0204 28.9394 77.7324 29.1734C77.5884 29.2814 77.4624 29.3714 77.3544 29.4434C77.2644 29.5154 77.2014 29.5514 77.1654 29.5514C77.1294 29.5514 76.9854 29.5064 76.7334 29.4164C76.4994 29.3084 76.2654 29.1644 76.0314 28.9844C75.8154 28.7864 75.7074 28.5614 75.7074 28.3094C75.7074 28.1474 75.7704 27.8234 75.8964 27.3374C76.0404 26.8514 76.2384 26.2754 76.4904 25.6094C76.7424 24.9434 77.0304 24.2684 77.3544 23.5844C77.4264 23.4224 77.4804 23.2064 77.5164 22.9364C77.5524 22.6664 77.5884 22.4054 77.6244 22.1534C77.6784 21.8834 77.7684 21.6854 77.8944 21.5594C77.9484 21.4694 78.0114 21.4064 78.0834 21.3704C78.1734 21.3164 78.2634 21.2894 78.3534 21.2894C78.5334 21.2894 78.7044 21.3344 78.8664 21.4244C79.0284 21.4964 79.1814 21.6224 79.3254 21.8024C79.5954 22.0904 79.7394 22.4324 79.7574 22.8284C79.7934 23.2064 79.7664 23.5754 79.6764 23.9354C79.5864 24.2954 79.4874 24.5924 79.3794 24.8264C79.2714 25.0424 79.2174 25.1324 79.2174 25.0964C79.2894 25.0604 79.3884 24.9704 79.5144 24.8264C79.6584 24.6824 79.9014 24.5114 80.2434 24.3134C80.7114 23.9534 81.0714 23.7014 81.3234 23.5574C81.5754 23.3954 81.7644 23.2784 81.8904 23.2064C82.0344 23.1344 82.1604 23.0534 82.2684 22.9634C82.3584 22.8914 82.4214 22.8464 82.4574 22.8284C82.5114 22.8104 82.5384 22.8014 82.5384 22.8014C82.5924 22.8014 82.6824 22.7654 82.8084 22.6934C82.9524 22.6214 83.0874 22.5854 83.2134 22.5854C83.3934 22.5854 83.5824 22.6304 83.7804 22.7204C83.9784 22.7924 84.1494 22.9004 84.2934 23.0444C84.4374 23.1704 84.5094 23.3054 84.5094 23.4494C84.5094 23.5034 84.5274 23.5484 84.5634 23.5844C84.5994 23.6204 84.6354 23.6654 84.6714 23.7194C84.7614 23.8274 84.8604 23.9804 84.9684 24.1784C85.0944 24.3584 85.1574 24.6554 85.1574 25.0694C85.1574 25.3574 85.0944 25.7804 84.9684 26.3384C84.8424 26.8964 84.7074 27.4454 84.5634 27.9854C84.4194 28.5434 84.3474 28.9934 84.3474 29.3354C84.3654 29.6594 84.4014 29.9114 84.4554 30.0914C84.5094 30.2534 84.5364 30.3884 84.5364 30.4964C84.5364 30.6404 84.4644 30.8114 84.3204 31.0094C84.1764 31.1894 83.9604 31.2794 83.6724 31.2794Z" fill="#101935"/>
</svg>
