<svg width="267" height="63" viewBox="0 0 267 63" fill="none" xmlns="http://www.w3.org/2000/svg">
<path d="M22.9933 57.8534C22.2206 57.9754 21.2853 57.9551 20.1873 57.7924C19.0893 57.6704 17.9099 57.4467 16.6493 57.1214C15.9986 56.9181 15.5309 56.6741 15.2463 56.3894C15.0023 56.1047 14.5753 55.5761 13.9653 54.8034C13.5586 54.1934 13.2943 53.5021 13.1723 52.7294C13.0909 51.9567 13.1926 51.2654 13.4773 50.6554C13.8026 50.0454 14.3313 49.6794 15.0633 49.5574C15.3886 49.4761 15.7749 49.5574 16.2223 49.8014C16.7103 50.0047 17.2186 50.2691 17.7473 50.5944C18.6013 51.0824 19.5163 51.5704 20.4923 52.0584C21.4683 52.5871 22.3629 52.7904 23.1763 52.6684C23.7456 52.5464 24.4166 52.4651 25.1893 52.4244C26.0026 52.4244 26.7753 52.3634 27.5073 52.2414C28.2799 52.1194 28.8899 51.8957 29.3373 51.5704C31.4926 50.1064 33.0989 48.9474 34.1563 48.0934C35.2136 47.1987 35.7423 46.7514 35.7423 46.7514C35.8236 46.5887 35.9659 46.4667 36.1693 46.3854C36.4133 46.2634 36.6979 46.1414 37.0233 46.0194C37.2673 45.7754 37.6536 45.3891 38.1823 44.8604C38.7109 44.2911 39.2193 43.7421 39.7073 43.2134C40.2359 42.6847 40.5613 42.3797 40.6833 42.2984C40.7646 41.9324 40.8459 41.6477 40.9273 41.4444C41.0086 41.2004 41.0493 40.9564 41.0493 40.7124C41.3746 40.3871 41.8016 39.7161 42.3303 38.6994C42.8996 37.6421 43.4689 36.4831 44.0383 35.2224C44.6076 33.9211 45.0143 32.7417 45.2583 31.6844C45.7869 29.4477 45.9699 27.4144 45.8073 25.5844C45.6446 23.7544 45.1769 22.1074 44.4043 20.6434C43.6316 19.1794 42.5946 17.8984 41.2933 16.8004C40.8459 16.4344 40.2359 16.0481 39.4633 15.6414C38.6906 15.1941 37.8976 14.7874 37.0843 14.4214C36.2709 14.0147 35.5389 13.7097 34.8883 13.5064C34.2783 13.3031 33.9123 13.2217 33.7903 13.2624C33.6276 13.3031 33.3023 13.9334 32.8143 15.1534C32.3669 16.3327 31.7976 17.8577 31.1063 19.7284C30.4556 21.5991 29.7439 23.6121 28.9713 25.7674C28.2393 27.8821 27.5276 29.8951 26.8363 31.8064C26.6329 32.5791 26.3686 33.3924 26.0433 34.2464C25.7586 35.1004 25.5146 35.8527 25.3113 36.5034C25.1079 37.1134 25.0063 37.5201 25.0063 37.7234C24.5589 38.4147 24.0913 39.4721 23.6033 40.8954C23.1153 42.3187 22.7086 44.3521 22.3833 46.9954C22.0173 48.3781 21.7529 49.5371 21.5903 50.4724C21.4276 51.3671 21.2649 51.7941 21.1023 51.7534C21.1023 51.7534 21.0819 51.9364 21.0413 52.3024C21.0006 52.7091 20.9193 52.9734 20.7973 53.0954C20.7973 53.3394 20.5533 53.5021 20.0653 53.5834C19.5773 53.6647 19.0079 53.5631 18.3573 53.2784C17.7066 52.9937 17.0966 52.4447 16.5273 51.6314C16.4053 51.1841 16.3036 50.5334 16.2223 49.6794C16.1816 48.7847 16.3239 47.7477 16.6493 46.5684C16.8526 45.7957 17.1373 44.7994 17.5033 43.5794C17.8693 42.3594 18.2759 41.0987 18.7233 39.7974C19.1706 38.4961 19.5773 37.2964 19.9433 36.1984C20.3499 35.1004 20.6346 34.2871 20.7973 33.7584C21.0819 33.0671 21.4886 31.7657 22.0173 29.8544C22.3426 28.7971 22.6679 27.7397 22.9933 26.6824C23.3593 25.6251 23.7049 24.6897 24.0303 23.8764C24.3556 23.0224 24.5793 22.4734 24.7013 22.2294C24.9046 21.7007 25.1486 20.8467 25.4333 19.6674C25.7586 18.4474 26.2466 17.0647 26.8973 15.5194L27.3243 13.5064L26.6533 13.2014C26.1653 13.3641 25.7789 13.4251 25.4943 13.3844C25.2503 13.3031 25.0876 13.2421 25.0063 13.2014C24.7623 13.2827 24.4369 13.2217 24.0303 13.0184C23.6643 12.7744 23.3186 12.4694 22.9933 12.1034C22.7086 11.7374 22.5256 11.4324 22.4443 11.1884C22.3629 11.0257 22.3019 10.8224 22.2613 10.5784C22.2613 10.2937 22.2613 10.1514 22.2613 10.1514C22.3019 9.90739 22.6476 9.66339 23.2983 9.41939C23.9489 9.13472 24.7826 8.87039 25.7993 8.62639C26.8566 8.38239 27.9749 8.19939 29.1543 8.07739C30.3336 7.95539 31.4316 7.93505 32.4483 8.01639C33.5056 8.09772 34.8069 8.34172 36.3523 8.74839C37.8976 9.15506 39.2193 9.56172 40.3173 9.96839C41.6186 10.4564 43.0216 11.2901 44.5263 12.4694C46.0309 13.6487 47.3933 15.0517 48.6133 16.6784C49.8739 18.3051 50.7076 20.0131 51.1143 21.8024C51.2363 22.2904 51.3583 22.9817 51.4803 23.8764C51.6023 24.7711 51.6633 25.6454 51.6633 26.4994C51.7039 27.3127 51.6226 27.8414 51.4193 28.0854C51.3379 28.2481 51.2769 28.4514 51.2363 28.6954C51.2363 28.8987 51.3176 29.0411 51.4803 29.1224C51.4396 29.2444 51.2973 29.7121 51.0533 30.5254C50.8093 31.2981 50.5856 31.9691 50.3823 32.5384C50.3009 33.5957 50.0163 34.8157 49.5283 36.1984C49.0809 37.5811 48.5726 38.9027 48.0033 40.1634C47.4746 41.3834 47.0069 42.3391 46.6003 43.0304C46.4376 43.0304 46.2749 43.0711 46.1123 43.1524C45.9903 43.1931 46.0106 43.2337 46.1733 43.2744C46.1733 43.4777 45.9496 43.8641 45.5023 44.4334C45.3396 44.5554 45.0753 44.8604 44.7093 45.3484C44.3839 45.7957 44.1196 46.1007 43.9163 46.2634C43.8756 46.5481 43.7536 46.7921 43.5503 46.9954C43.3469 47.1581 43.1639 47.2394 43.0013 47.2394C43.0013 47.2394 42.9606 47.2394 42.8793 47.2394C42.8386 47.2394 42.8183 47.3207 42.8183 47.4834C42.4929 47.9714 41.9439 48.6017 41.1713 49.3744C40.3986 50.1471 39.5243 50.9401 38.5483 51.7534C37.5723 52.5667 36.5963 53.3191 35.6203 54.0104C34.6443 54.7017 33.7496 55.2101 32.9363 55.5354C32.5296 55.8201 32.1026 56.0437 31.6553 56.2064C31.2079 56.4097 30.7809 56.6131 30.3743 56.8164C30.1709 56.9791 29.5813 57.1214 28.6053 57.2434C27.6293 57.3654 26.5923 57.4671 25.4943 57.5484C24.4369 57.6297 23.6033 57.7314 22.9933 57.8534ZM64.3317 50.1674C63.1117 50.8587 61.8104 51.2654 60.4277 51.3874C59.0857 51.4687 57.8251 51.2857 56.6457 50.8384C55.4664 50.3504 54.5107 49.6387 53.7787 48.7034C53.3721 48.1747 52.9857 47.3411 52.6197 46.2024C52.2537 45.0231 52.1927 43.4371 52.4367 41.4444C52.6807 39.5737 53.2501 37.6827 54.1447 35.7714C55.0801 33.8601 56.2187 32.1724 57.5607 30.7084C58.9027 29.2444 60.3667 28.2481 61.9527 27.7194C62.5221 27.5161 63.0914 27.3737 63.6607 27.2924C64.2707 27.1704 65.0637 27.1501 66.0397 27.2314C66.9751 27.3534 67.8087 27.5974 68.5407 27.9634C69.2727 28.2887 69.8014 28.6547 70.1267 29.0614C70.7774 29.7121 71.2044 30.3424 71.4077 30.9524C71.6111 31.5624 71.6924 32.1521 71.6517 32.7214C71.4484 34.0227 70.8587 35.4257 69.8827 36.9304C68.9474 38.4351 67.6257 39.5534 65.9177 40.2854C65.2264 40.5701 64.4131 40.7531 63.4777 40.8344C62.5424 40.9157 61.2614 40.7937 59.6347 40.4684C58.6587 40.2651 58.0081 40.3667 57.6827 40.7734C57.3981 41.1801 57.2761 41.9731 57.3167 43.1524C57.3981 43.8844 57.5607 44.5351 57.8047 45.1044C58.0894 45.6331 58.5977 45.9991 59.3297 46.2024C60.2651 46.3651 60.9361 46.3854 61.3427 46.2634C61.7494 46.1007 62.2577 45.8771 62.8677 45.5924C63.1931 45.3891 63.4981 45.1654 63.7827 44.9214C64.1081 44.6774 64.4131 44.4334 64.6977 44.1894C65.0231 43.9454 65.2874 43.7624 65.4907 43.6404C65.6941 43.4777 65.8974 43.3761 66.1007 43.3354C66.3041 43.2947 66.5074 43.2744 66.7107 43.2744C67.1581 43.3151 67.5851 43.5591 67.9917 44.0064C68.3984 44.4537 68.6627 44.8807 68.7847 45.2874C68.7847 45.6127 68.5814 46.0804 68.1747 46.6904C67.7681 47.2597 67.2191 47.8697 66.5277 48.5204C65.8771 49.1304 65.1451 49.6794 64.3317 50.1674ZM63.5387 36.5644C63.8234 36.4424 64.2301 36.1577 64.7587 35.7104C65.3281 35.2631 65.8364 34.7954 66.2837 34.3074C66.7311 33.7787 66.9547 33.3721 66.9547 33.0874C66.9547 32.6401 66.6497 32.2537 66.0397 31.9284C65.4704 31.6031 64.7181 31.5421 63.7827 31.7454C63.4574 31.8267 63.0711 32.0504 62.6237 32.4164C62.1764 32.7824 61.7291 33.2094 61.2817 33.6974C60.8344 34.1447 60.4481 34.5921 60.1227 35.0394C59.7974 35.4461 59.5737 35.7714 59.4517 36.0154C59.6144 36.2187 59.9397 36.3814 60.4277 36.5034C60.9157 36.6254 61.4444 36.6864 62.0137 36.6864C62.6237 36.6864 63.1321 36.6457 63.5387 36.5644ZM77.7508 48.1544C77.4661 47.9104 77.0798 47.1784 76.5918 45.9584C76.1444 44.7384 75.6971 43.3151 75.2498 41.6884C74.8431 40.0617 74.5178 38.5571 74.2738 37.1744C74.1111 36.3611 73.9281 35.6697 73.7248 35.1004C73.5621 34.5311 73.4198 34.0634 73.2978 33.6974C73.0944 32.9654 73.1554 32.1927 73.4808 31.3794C73.8468 30.5661 74.2738 30.0171 74.7618 29.7324C74.9651 29.6104 75.3311 29.5291 75.8598 29.4884C76.4291 29.4071 76.7951 29.3867 76.9578 29.4274C77.4458 29.5901 77.8931 30.3424 78.2998 31.6844C78.7064 32.9857 79.0724 34.7141 79.3978 36.8694C79.5604 38.1301 79.6824 39.0654 79.7638 39.6754C79.8858 40.2447 79.9468 40.6107 79.9468 40.7734C80.1094 41.0987 80.2111 41.5054 80.2518 41.9934C80.3331 42.4407 80.5364 42.5017 80.8618 42.1764C81.0244 42.0137 81.2684 41.7291 81.5938 41.3224C81.9598 40.9157 82.3868 40.3871 82.8748 39.7364C83.7288 38.5977 84.3998 37.6624 84.8878 36.9304C85.4164 36.1577 86.0061 35.3647 86.6568 34.5514C86.9414 34.1447 87.3278 33.6974 87.8158 33.2094C88.3038 32.7214 88.7918 32.2741 89.2798 31.8674C89.7678 31.4201 90.1744 31.1557 90.4998 31.0744C91.4758 30.9117 92.0654 31.2777 92.2688 32.1724C92.5128 33.0264 92.2281 34.0227 91.4148 35.1614C91.0894 35.6494 90.8251 36.1171 90.6218 36.5644C90.4591 36.9711 90.2964 37.2557 90.1338 37.4184C89.8084 38.0691 89.3001 38.9027 88.6088 39.9194C87.9174 40.8954 87.2464 41.8104 86.5958 42.6644C85.9451 43.4777 85.4978 44.0064 85.2538 44.2504C85.0911 44.4131 84.7251 44.7181 84.1558 45.1654C83.6271 45.6127 83.1188 46.1821 82.6308 46.8734C81.6548 47.8087 80.7194 48.3781 79.8248 48.5814C78.9301 48.7847 78.2388 48.6424 77.7508 48.1544ZM106.18 54.4984C105.529 54.5391 104.594 54.4984 103.374 54.3764C102.195 54.2544 100.934 53.9494 99.5921 53.4614C98.2908 52.9734 97.1114 52.2617 96.0541 51.3264C95.0374 50.3504 94.3664 49.0491 94.0411 47.4224C93.5531 45.1451 93.4514 42.6644 93.7361 39.9804C94.0208 37.2964 94.5088 34.6531 95.2001 32.0504C95.4034 31.3184 95.7898 30.3831 96.3591 29.2444C96.9284 28.0651 97.5994 26.8044 98.3721 25.4624C99.1854 24.1204 100.019 22.8191 100.873 21.5584C101.727 20.2571 102.52 19.1387 103.252 18.2034C103.781 17.5934 104.452 16.9021 105.265 16.1294C106.119 15.3161 106.993 14.5434 107.888 13.8114C108.823 13.0387 109.657 12.3881 110.389 11.8594C111.162 11.2901 111.711 10.9444 112.036 10.8224C112.565 10.5784 113.093 10.4361 113.622 10.3954C114.151 10.3141 114.781 10.3751 115.513 10.5784C116.082 10.6191 116.692 10.8224 117.343 11.1884C117.994 11.5137 118.563 11.8797 119.051 12.2864C119.539 12.6931 119.803 13.0794 119.844 13.4454C119.885 13.6894 120.332 13.6691 121.186 13.3844C121.471 13.0591 121.898 12.8151 122.467 12.6524C123.036 12.4491 123.565 12.3474 124.053 12.3474C124.541 12.3067 124.805 12.4287 124.846 12.7134C124.602 13.0794 124.643 13.4047 124.968 13.6894C125.09 13.6487 125.11 13.9334 125.029 14.5434C124.948 15.1534 124.805 15.8651 124.602 16.6784C124.399 17.4511 124.155 18.0611 123.87 18.5084C123.87 18.5084 123.829 18.6101 123.748 18.8134C123.707 19.0167 123.687 19.1184 123.687 19.1184C123.768 19.3217 123.728 19.5251 123.565 19.7284C123.402 19.9317 123.26 20.1147 123.138 20.2774C123.016 20.4807 122.853 20.9077 122.65 21.5584C122.487 22.1684 122.304 22.8801 122.101 23.6934C121.938 24.4661 121.796 25.1777 121.674 25.8284C121.552 26.4384 121.491 26.8451 121.491 27.0484C121.572 27.3331 121.206 27.4957 120.393 27.5364C119.62 27.5364 118.888 27.4144 118.197 27.1704C117.302 26.8451 116.733 26.4181 116.489 25.8894C116.286 25.3607 116.408 24.3237 116.855 22.7784C117.424 20.9077 117.75 19.5251 117.831 18.6304C117.912 17.7357 117.668 17.0647 117.099 16.6174C116.896 16.2514 116.448 16.0277 115.757 15.9464C115.066 15.8244 114.496 15.9057 114.049 16.1904C113.439 16.4344 112.605 17.0037 111.548 17.8984C110.491 18.7524 109.393 19.7691 108.254 20.9484C107.115 22.1277 106.099 23.3477 105.204 24.6084C103.333 27.2111 101.91 29.8137 100.934 32.4164C99.9581 35.0191 99.4091 37.5201 99.2871 39.9194C99.1651 42.3187 99.4498 44.5757 100.141 46.6904C100.222 46.8531 100.466 47.1987 100.873 47.7274C101.28 48.2561 101.605 48.6017 101.849 48.7644C103.11 49.0491 104.919 49.0694 107.278 48.8254C109.027 48.5001 110.308 48.0121 111.121 47.3614C111.975 46.7107 112.788 45.8161 113.561 44.6774C114.008 44.0267 114.496 43.7624 115.025 43.8844C115.554 43.9657 116.021 44.2911 116.428 44.8604C116.835 45.3891 117.079 46.0194 117.16 46.7514C117.16 46.9547 116.977 47.3817 116.611 48.0324C116.286 48.6424 115.899 49.2321 115.452 49.8014C115.045 50.3707 114.72 50.6961 114.476 50.7774C114.313 50.8181 114.212 50.8587 114.171 50.8994C114.171 50.9401 114.191 51.0621 114.232 51.2654C114.232 51.4281 113.968 51.6721 113.439 51.9974C112.91 52.3227 112.239 52.6481 111.426 52.9734C110.613 53.3394 109.738 53.6444 108.803 53.8884C107.868 54.1731 106.993 54.3764 106.18 54.4984ZM128.885 50.8994C128.031 51.0621 127.38 51.0214 126.933 50.7774C126.526 50.4927 126.099 50.1471 125.652 49.7404C125.001 49.4151 124.412 48.9677 123.883 48.3984C123.354 47.7884 122.948 47.1581 122.663 46.5074C122.378 45.8567 122.256 45.3484 122.297 44.9824C122.419 43.5591 122.744 42.0137 123.273 40.3464C123.842 38.6791 124.554 37.0524 125.408 35.4664C126.303 33.8804 127.299 32.4774 128.397 31.2574C129.536 29.9967 130.756 29.0817 132.057 28.5124C132.87 28.1871 133.745 28.0651 134.68 28.1464C135.615 28.2277 136.246 28.6141 136.571 29.3054C137.181 30.4847 137.039 31.2371 136.144 31.5624C136.022 31.5624 135.88 31.6234 135.717 31.7454C135.554 31.8267 135.473 31.9487 135.473 32.1114C135.636 32.1927 136.083 32.2131 136.815 32.1724C137.547 32.0911 138.279 31.9691 139.011 31.8064C139.784 31.6031 140.292 31.3997 140.536 31.1964C140.78 31.0744 140.963 31.0134 141.085 31.0134C141.207 31.0134 141.512 31.0541 142 31.1354C142.691 31.3387 143.037 31.5827 143.037 31.8674C143.037 32.0301 143.098 32.2944 143.22 32.6604C143.342 32.9857 143.484 33.1484 143.647 33.1484C143.932 33.1891 143.993 33.4737 143.83 34.0024C143.708 34.5311 143.24 35.0801 142.427 35.6494C141.654 36.1374 141.166 36.4627 140.963 36.6254C140.8 36.7474 140.78 37.0321 140.902 37.4794C141.227 38.2521 141.207 39.1874 140.841 40.2854C140.475 41.3834 139.865 42.5221 139.011 43.7014C138.157 44.8807 137.14 45.9991 135.961 47.0564C134.822 48.0731 133.623 48.9474 132.362 49.6794C131.142 50.3707 129.983 50.7774 128.885 50.8994ZM129.068 45.7754C129.231 45.7754 129.515 45.6941 129.922 45.5314C130.329 45.3281 130.654 45.1654 130.898 45.0434C131.061 44.8807 131.264 44.6977 131.508 44.4944C131.793 44.2504 132.016 44.1081 132.179 44.0674C132.342 44.0674 132.443 44.0064 132.484 43.8844C132.525 43.7217 132.667 43.4167 132.911 42.9694C133.155 42.4814 133.643 41.7697 134.375 40.8344C135.188 39.9397 135.717 39.2281 135.961 38.6994C136.205 38.1301 136.225 37.5201 136.022 36.8694C135.981 36.7067 135.859 36.6051 135.656 36.5644C135.493 36.5237 135.27 36.4221 134.985 36.2594C134.578 36.2594 134.294 36.3611 134.131 36.5644C134.009 36.7271 133.724 36.6254 133.277 36.2594L132.301 35.0394L131.264 36.0764C130.613 36.7271 130.024 37.5404 129.495 38.5164C129.007 39.4924 128.621 40.4887 128.336 41.5054C128.051 42.5221 127.868 43.4167 127.787 44.1894C127.746 44.7994 127.848 45.2061 128.092 45.4094C128.336 45.6127 128.661 45.7347 129.068 45.7754ZM164.65 51.1434C164.04 51.1434 163.45 50.9604 162.881 50.5944C162.311 50.1877 161.844 49.6387 161.478 48.9474C161.112 48.2154 160.929 47.3614 160.929 46.3854C160.929 45.7754 161.03 44.9214 161.234 43.8234C161.478 42.6847 161.823 41.2614 162.271 39.5534C162.352 38.9841 162.413 38.6181 162.454 38.4554C162.535 38.2927 162.576 38.1301 162.576 37.9674C162.576 37.8861 162.555 37.8251 162.515 37.7844C162.515 37.7031 162.474 37.6624 162.393 37.6624C162.067 37.6624 161.62 37.8861 161.051 38.3334C160.522 38.7401 159.912 39.2281 159.221 39.7974C159.099 39.8787 158.956 39.9804 158.794 40.1024C158.672 40.2244 158.529 40.3464 158.367 40.4684C158.245 40.5904 158.102 40.7124 157.94 40.8344C157.533 41.0784 156.903 41.5461 156.049 42.2374C155.235 42.9287 154.381 43.6607 153.487 44.4334C152.633 45.2061 151.88 45.8567 151.23 46.3854C150.904 46.6294 150.62 46.8327 150.376 46.9954C150.172 47.1581 150.03 47.2394 149.949 47.2394C149.867 47.2394 149.542 47.1377 148.973 46.9344C148.444 46.6904 147.915 46.3651 147.387 45.9584C146.899 45.5111 146.655 45.0027 146.655 44.4334C146.655 44.0674 146.797 43.3354 147.082 42.2374C147.407 41.1394 147.854 39.8381 148.424 38.3334C148.993 36.8287 149.644 35.3037 150.376 33.7584C150.538 33.3924 150.66 32.9044 150.742 32.2944C150.823 31.6844 150.904 31.0947 150.986 30.5254C151.108 29.9154 151.311 29.4681 151.596 29.1834C151.718 28.9801 151.86 28.8377 152.023 28.7564C152.226 28.6344 152.429 28.5734 152.633 28.5734C153.039 28.5734 153.426 28.6751 153.792 28.8784C154.158 29.0411 154.503 29.3257 154.829 29.7324C155.439 30.3831 155.764 31.1557 155.805 32.0504C155.886 32.9044 155.825 33.7381 155.622 34.5514C155.418 35.3647 155.195 36.0357 154.951 36.5644C154.707 37.0524 154.585 37.2557 154.585 37.1744C154.747 37.0931 154.971 36.8897 155.256 36.5644C155.581 36.2391 156.13 35.8527 156.903 35.4054C157.96 34.5921 158.773 34.0227 159.343 33.6974C159.912 33.3314 160.339 33.0671 160.624 32.9044C160.949 32.7417 161.234 32.5587 161.478 32.3554C161.681 32.1927 161.823 32.0911 161.905 32.0504C162.027 32.0097 162.088 31.9894 162.088 31.9894C162.21 31.9894 162.413 31.9081 162.698 31.7454C163.023 31.5827 163.328 31.5014 163.613 31.5014C164.019 31.5014 164.446 31.6031 164.894 31.8064C165.341 31.9691 165.727 32.2131 166.053 32.5384C166.378 32.8231 166.541 33.1281 166.541 33.4534C166.541 33.5754 166.581 33.6771 166.663 33.7584C166.744 33.8397 166.825 33.9414 166.907 34.0634C167.11 34.3074 167.334 34.6531 167.578 35.1004C167.862 35.5071 168.005 36.1781 168.005 37.1134C168.005 37.7641 167.862 38.7197 167.578 39.9804C167.293 41.2411 166.988 42.4814 166.663 43.7014C166.337 44.9621 166.175 45.9787 166.175 46.7514C166.215 47.4834 166.297 48.0527 166.419 48.4594C166.541 48.8254 166.602 49.1304 166.602 49.3744C166.602 49.6997 166.439 50.0861 166.114 50.5334C165.788 50.9401 165.3 51.1434 164.65 51.1434ZM176.361 49.3134C176.198 49.3134 175.812 49.1711 175.202 48.8864C174.592 48.5611 174.205 48.3171 174.043 48.1544C173.758 47.8291 173.575 47.4834 173.494 47.1174C173.412 46.7107 173.372 45.9381 173.372 44.7994C173.372 43.4981 173.636 42.0341 174.165 40.4074C174.693 38.7401 175.588 36.5237 176.849 33.7584L179.35 28.6954C179.553 28.4107 179.736 28.1667 179.899 27.9634C180.061 27.7194 180.244 27.4957 180.448 27.2924C180.529 27.2924 180.631 27.2924 180.753 27.2924C180.915 27.2924 181.037 27.3127 181.119 27.3534C181.485 27.3941 182.054 27.6177 182.827 28.0244C183.64 28.4311 184.128 29.0411 184.291 29.8544C184.291 30.3831 184.209 31.0134 184.047 31.7454C183.884 32.4367 183.396 33.3517 182.583 34.4904C182.257 34.8971 181.932 35.4867 181.607 36.2594C181.322 37.0321 181.058 37.7641 180.814 38.4554C180.773 38.5367 180.651 38.7401 180.448 39.0654C180.285 39.3501 180.122 39.6551 179.96 39.9804C179.797 40.2651 179.716 40.4481 179.716 40.5294L179.472 41.0784L182.095 38.5164C183.925 36.6864 185.47 35.3851 186.731 34.6124C187.991 33.8397 189.049 33.5144 189.903 33.6364C190.797 33.7584 191.509 34.2667 192.038 35.1614C192.322 35.5681 192.526 36.0154 192.648 36.5034C192.77 36.9507 192.851 37.4794 192.892 38.0894C192.932 38.6994 192.912 39.4721 192.831 40.4074V43.8844C193.603 43.6811 194.193 43.5184 194.6 43.3964C195.006 43.2337 195.413 43.0914 195.82 42.9694C196.145 42.8881 196.47 42.8067 196.796 42.7254C197.162 42.6441 197.609 42.5831 198.138 42.5424C198.097 43.0711 197.873 43.7217 197.467 44.4944C197.06 45.2671 196.552 46.0397 195.942 46.8124C195.372 47.5851 194.742 48.2357 194.051 48.7644C193.4 49.2931 192.79 49.5574 192.221 49.5574C191.692 49.5574 191.082 49.3947 190.391 49.0694C189.699 48.7034 189.11 48.0121 188.622 46.9954C188.459 46.4667 188.296 45.8567 188.134 45.1654C187.971 44.4741 187.89 43.7421 187.89 42.9694V40.2854C187.89 40.0414 187.869 39.8787 187.829 39.7974C187.829 39.6754 187.808 39.6144 187.768 39.6144C187.605 39.6144 187.076 40.0414 186.182 40.8954C185.328 41.7494 184.453 42.6441 183.559 43.5794C181.688 45.5314 180.122 46.9751 178.862 47.9104C177.642 48.8457 176.808 49.3134 176.361 49.3134ZM205.274 50.8384C203.688 50.1877 202.59 49.1304 201.98 47.6664C201.37 46.2024 201.207 44.2504 201.492 41.8104C201.573 40.5497 201.532 39.7161 201.37 39.3094C201.207 38.8621 200.902 38.4351 200.455 38.0284C200.333 37.8657 200.048 37.6014 199.601 37.2354C199.153 36.8287 198.95 36.5237 198.991 36.3204C198.95 36.0357 199.011 35.6901 199.174 35.2834C199.336 34.8361 199.479 34.5921 199.601 34.5514C199.885 34.4294 200.17 34.2871 200.455 34.1244C200.78 33.9617 201.024 33.9211 201.187 34.0024C201.349 34.0024 201.593 34.1041 201.919 34.3074C202.285 34.5107 202.468 34.6937 202.468 34.8564C202.63 35.1411 202.874 35.0191 203.2 34.4904C203.566 33.9617 203.952 33.2907 204.359 32.4774C204.765 31.8267 205.274 31.2167 205.884 30.6474C206.494 30.0781 207.104 29.5697 207.714 29.1224C208.364 28.6344 208.913 28.2684 209.361 28.0244C209.564 27.9431 209.95 27.8211 210.52 27.6584C211.13 27.4957 211.76 27.3737 212.411 27.2924C213.061 27.1704 213.549 27.1297 213.875 27.1704C214.607 27.2111 215.379 27.5161 216.193 28.0854C217.006 28.6547 217.636 29.1834 218.084 29.6714C218.612 30.0374 218.958 30.6067 219.121 31.3794C219.324 32.1114 219.405 32.8841 219.365 33.6974C219.324 34.5107 219.161 35.2021 218.877 35.7714C218.755 36.1781 218.328 36.7474 217.596 37.4794C216.864 38.2114 216.05 38.9231 215.156 39.6144C214.302 40.2651 213.57 40.7124 212.96 40.9564C212.431 41.0784 211.801 41.1801 211.069 41.2614C210.337 41.3021 209.645 41.3021 208.995 41.2614C208.385 41.1801 207.958 41.0784 207.714 40.9564C207.429 40.7937 207.185 40.8547 206.982 41.1394C206.819 41.3834 206.677 42.0747 206.555 43.2134C206.514 43.6607 206.514 44.0471 206.555 44.3724C206.636 44.6977 206.717 44.9417 206.799 45.1044C207.083 45.5924 207.368 45.9584 207.653 46.2024C207.937 46.4057 208.466 46.4667 209.239 46.3854C210.011 46.3041 210.784 45.8364 211.557 44.9824C212.37 44.0877 213.102 43.3761 213.753 42.8474C213.915 42.5627 214.261 42.3797 214.79 42.2984C215.359 42.1764 216.03 42.2171 216.803 42.4204C217.25 42.7051 217.453 43.1524 217.413 43.7624C217.413 44.3724 217.087 45.2671 216.437 46.4464C216.315 46.7311 215.969 47.1581 215.4 47.7274C214.871 48.2561 214.281 48.8051 213.631 49.3744C213.021 49.9031 212.512 50.2894 212.106 50.5334C210.886 51.1841 209.686 51.4891 208.507 51.4484C207.327 51.4077 206.25 51.2044 205.274 50.8384ZM209.788 37.1134C210.398 36.9507 210.906 36.7881 211.313 36.6254C211.76 36.4627 212.187 36.1984 212.594 35.8324C213 35.4664 213.468 34.9174 213.997 34.1854C214.159 33.7381 214.241 33.3517 214.241 33.0264C214.281 32.7011 214.261 32.4977 214.18 32.4164C213.854 32.0911 213.488 31.9894 213.082 32.1114C212.716 32.1927 212.309 32.3961 211.862 32.7214C211.577 32.8434 211.17 33.1077 210.642 33.5144C210.154 33.8804 209.666 34.3074 209.178 34.7954C208.73 35.2427 208.364 35.6697 208.08 36.0764C207.836 36.4424 207.795 36.6661 207.958 36.7474C207.876 36.9101 208.1 37.0117 208.629 37.0524C209.198 37.0931 209.584 37.1134 209.788 37.1134ZM228.941 51.6314C227.761 51.8347 226.582 51.7331 225.403 51.3264C224.264 50.9197 223.308 50.2691 222.536 49.3744C221.804 48.4391 221.438 47.3207 221.438 46.0194C221.316 44.7994 221.417 43.3557 221.743 41.6884C222.109 39.9804 222.637 38.2724 223.329 36.5644C224.061 34.8564 224.894 33.4127 225.83 32.2334C226.643 31.2574 227.456 30.3627 228.27 29.5494C229.083 28.7361 229.815 28.1871 230.466 27.9024C231.035 27.6584 231.726 27.4754 232.54 27.3534C233.394 27.1907 233.983 27.1094 234.309 27.1094C234.959 27.2721 235.671 27.5364 236.444 27.9024C237.257 28.2684 237.664 28.6954 237.664 29.1834C237.664 29.1834 237.704 29.2444 237.786 29.3664C237.908 29.4477 237.969 29.4884 237.969 29.4884C238.213 29.4884 238.477 29.7934 238.762 30.4034C239.087 30.9727 239.331 31.6437 239.494 32.4164C239.656 33.1484 239.616 33.7381 239.372 34.1854C239.209 34.9581 238.884 35.7104 238.396 36.4424C237.948 37.1744 237.562 37.5404 237.237 37.5404C237.074 37.5404 236.911 37.5607 236.749 37.6014C236.627 37.6014 236.566 37.7031 236.566 37.9064C236.566 38.1097 236.342 38.2114 235.895 38.2114C235.488 38.2114 235.061 38.1301 234.614 37.9674C234.166 37.8047 233.882 37.5607 233.76 37.2354C233.76 37.0321 233.8 36.7677 233.882 36.4424C233.963 36.1171 234.085 35.5681 234.248 34.7954C234.492 33.6567 234.512 32.9044 234.309 32.5384C234.105 32.1317 233.597 32.0911 232.784 32.4164C231.767 32.9857 230.933 33.6567 230.283 34.4294C229.632 35.1614 229.042 36.1984 228.514 37.5404C228.026 38.8824 227.477 40.7531 226.867 43.1524C226.623 44.0877 226.582 44.8197 226.745 45.3484C226.948 45.8771 227.111 46.1617 227.233 46.2024C227.802 46.3651 228.412 46.4057 229.063 46.3244C229.754 46.2024 230.323 46.0194 230.771 45.7754C231.421 45.4501 231.991 45.1044 232.479 44.7384C233.007 44.3317 233.577 43.9047 234.187 43.4574C234.39 43.3354 234.573 43.1117 234.736 42.7864C234.898 42.4204 235.142 42.1561 235.468 41.9934C235.793 41.5054 236.2 41.2614 236.688 41.2614C237.216 41.2207 237.725 41.2004 238.213 41.2004C238.538 41.2817 238.884 41.4851 239.25 41.8104C239.616 42.1357 239.88 42.4611 240.043 42.7864C240.246 43.0711 240.226 43.2744 239.982 43.3964C239.819 43.3964 239.717 43.4574 239.677 43.5794C239.677 43.6607 239.677 43.7014 239.677 43.7014C239.758 43.8641 239.575 44.2301 239.128 44.7994C238.721 45.3687 238.192 45.9787 237.542 46.6294C236.891 47.2801 236.261 47.8494 235.651 48.3374C235.081 48.7847 234.675 49.0084 234.431 49.0084C234.024 49.0084 233.821 49.1304 233.821 49.3744C233.821 49.4557 233.516 49.6591 232.906 49.9844C232.336 50.3097 231.665 50.6351 230.893 50.9604C230.161 51.2857 229.51 51.5094 228.941 51.6314ZM251.709 51.7534C251.14 51.5907 250.571 51.3061 250.001 50.8994C249.432 50.4927 248.842 50.0251 248.232 49.4964C247.744 48.8457 247.399 48.2561 247.195 47.7274C246.992 47.1581 246.87 46.5074 246.829 45.7754C246.829 45.0027 246.829 44.0267 246.829 42.8474C246.829 42.3594 246.911 41.6681 247.073 40.7734C247.277 39.8787 247.48 38.9434 247.683 37.9674C247.927 36.9914 248.151 36.1374 248.354 35.4054C248.558 34.6327 248.68 34.1244 248.72 33.8804C248.842 33.3517 248.639 33.0467 248.11 32.9654C247.582 32.8841 246.992 32.8637 246.341 32.9044C245.731 32.9044 245.325 32.8434 245.121 32.7214C244.959 32.6807 244.877 32.4774 244.877 32.1114C244.877 31.7047 244.877 31.5014 244.877 31.5014C244.877 31.3387 244.796 31.2371 244.633 31.1964C244.471 31.1151 244.328 30.9727 244.206 30.7694C244.125 30.6067 244.227 30.3017 244.511 29.8544C244.796 29.4071 245.162 29.1427 245.609 29.0614C245.975 28.9801 246.524 28.9191 247.256 28.8784C247.988 28.7971 248.72 28.6547 249.452 28.4514C250.225 28.2074 250.815 27.8414 251.221 27.3534C251.587 26.4587 251.994 25.5031 252.441 24.4864C252.889 23.4291 253.316 22.5141 253.722 21.7414C254.129 20.9281 254.414 20.4197 254.576 20.2164C255.268 19.8504 255.979 19.7081 256.711 19.7894C257.443 19.8301 258.013 20.1757 258.419 20.8264C258.623 21.1111 258.785 21.3144 258.907 21.4364C259.07 21.5584 259.131 21.7414 259.09 21.9854C259.09 22.2294 258.928 22.6767 258.602 23.3274C258.318 23.9374 257.83 24.8931 257.138 26.1944C256.935 26.6011 256.752 26.9671 256.589 27.2924C256.427 27.5771 256.345 27.7194 256.345 27.7194C256.508 27.7601 256.752 27.7804 257.077 27.7804C257.403 27.7804 257.809 27.7601 258.297 27.7194C258.745 27.6381 259.233 27.5771 259.761 27.5364C260.29 27.4551 260.758 27.4551 261.164 27.5364C262.1 27.5364 262.791 27.8007 263.238 28.3294C263.686 28.8581 263.93 29.5291 263.97 30.3424C264.052 30.7897 263.889 31.1761 263.482 31.5014C263.076 31.8267 262.323 31.9894 261.225 31.9894C260.859 31.9894 260.331 32.0097 259.639 32.0504C258.948 32.0911 258.236 32.1317 257.504 32.1724C256.772 32.2131 256.142 32.2741 255.613 32.3554C255.125 32.3961 254.881 32.4571 254.881 32.5384C254.759 32.6197 254.556 32.9451 254.271 33.5144C254.027 34.0431 253.763 34.6937 253.478 35.4664C253.234 36.2391 253.011 36.9711 252.807 37.6624C252.523 39.0451 252.319 40.3871 252.197 41.6884C252.075 42.9897 252.055 44.1284 252.136 45.1044C252.258 46.0397 252.502 46.7107 252.868 47.1174C253.234 47.4834 253.783 47.4834 254.515 47.1174C255.288 46.7107 256 46.2431 256.65 45.7144C257.382 45.1044 258.013 44.9214 258.541 45.1654C259.07 45.3687 259.395 45.8161 259.517 46.5074C259.68 47.1581 259.497 47.8697 258.968 48.6424C258.48 49.4151 257.789 50.0657 256.894 50.5944C256 51.1231 255.085 51.4891 254.149 51.6924C253.214 51.9364 252.401 51.9567 251.709 51.7534Z" fill="#101935"/>
</svg>
